M48
; DRILL file {KiCad (5.1.2)-1} date 22/12/2019 13:36:47
; FORMAT={-:-/ absolute / metric / decimal}
; #@! TF.CreationDate,2019-12-22T13:36:47+06:00
; #@! TF.GenerationSoftware,Kicad,Pcbnew,(5.1.2)-1
FMAT,2
METRIC
T1C0.400
T2C1.000
T3C1.100
T4C1.300
T5C2.000
%
G90
G05
T1
X19.05Y-38.227
X23.622Y-36.322
X32.004Y-40.767
X35.56Y-21.59
X35.814Y-23.368
X38.1Y-35.687
X38.227Y-33.909
X40.64Y-14.224
X42.164Y-26.797
X43.434Y-20.828
X43.434Y-32.004
X43.815Y-26.924
X45.339Y-21.59
X46.99Y-26.162
X47.879Y-20.193
X49.022Y-26.416
X49.276Y-38.1
X50.164Y-30.734
X54.229Y-50.927
X54.229Y-52.197
X54.229Y-53.34
X55.118Y-31.496
X55.372Y-57.404
X55.88Y-25.4
X56.261Y-26.797
X56.388Y-32.258
X56.388Y-52.959
X56.388Y-54.102
X56.896Y-38.608
X57.404Y-54.102
X58.928Y-52.07
X58.933Y-41.651
X59.69Y-38.608
X59.944Y-53.213
X60.198Y-43.942
X60.804Y-49.276
X61.087Y-41.783
X61.214Y-33.274
X61.976Y-17.78
X62.357Y-24.765
X62.484Y-30.226
X65.786Y-31.242
X66.04Y-47.498
X67.564Y-26.67
X67.564Y-41.91
X68.088Y-32.31
X68.58Y-15.24
X68.58Y-20.574
X68.58Y-22.352
X68.58Y-49.53
X69.783Y-35.747
X70.231Y-46.99
X70.612Y-14.224
X71.882Y-27.178
X71.882Y-29.718
X71.882Y-32.457
X72.644Y-19.304
X73.025Y-21.082
T2
X38.1Y-59.69
X40.64Y-59.69
X43.18Y-59.69
X45.72Y-59.69
X48.26Y-59.69
X15.2Y-58.61
X20.4Y-29.21
X25.4Y-29.21
X30.6Y-58.61
X74.93Y-27.051
X74.93Y-29.591
X74.93Y-32.131
X74.93Y-34.671
X33.02Y-15.24
X33.02Y-17.78
X57.15Y-59.69
X59.69Y-59.69
X62.23Y-59.69
X64.77Y-59.69
X67.31Y-59.69
X65.405Y-15.24
X65.405Y-17.78
X65.405Y-20.32
X65.405Y-22.86
T3
X37.95Y-43.76
X37.95Y-48.26
X44.45Y-43.76
X44.45Y-48.26
X50.65Y-43.76
X50.65Y-48.26
X57.15Y-43.76
X57.15Y-48.26
T4
X20.32Y-19.05
X25.32Y-19.05
T5
X13.97Y-15.24
X35.56Y-54.61
X76.2Y-13.97
X76.835Y-59.69
T0
M30
