G04 #@! TF.GenerationSoftware,KiCad,Pcbnew,(5.1.2)-1*
G04 #@! TF.CreationDate,2019-12-22T13:40:19+06:00*
G04 #@! TF.ProjectId,esp12e-simple-board,65737031-3265-42d7-9369-6d706c652d62,rev?*
G04 #@! TF.SameCoordinates,Original*
G04 #@! TF.FileFunction,Soldermask,Top*
G04 #@! TF.FilePolarity,Negative*
%FSLAX46Y46*%
G04 Gerber Fmt 4.6, Leading zero omitted, Abs format (unit mm)*
G04 Created by KiCad (PCBNEW (5.1.2)-1) date 2019-12-22 13:40:19*
%MOMM*%
%LPD*%
G04 APERTURE LIST*
%ADD10C,0.100000*%
G04 APERTURE END LIST*
D10*
G36*
X67420442Y-58795518D02*
G01*
X67486627Y-58802037D01*
X67656466Y-58853557D01*
X67812991Y-58937222D01*
X67848729Y-58966552D01*
X67950186Y-59049814D01*
X68033448Y-59151271D01*
X68062778Y-59187009D01*
X68146443Y-59343534D01*
X68197963Y-59513373D01*
X68215359Y-59690000D01*
X68197963Y-59866627D01*
X68146443Y-60036466D01*
X68062778Y-60192991D01*
X68033448Y-60228729D01*
X67950186Y-60330186D01*
X67848729Y-60413448D01*
X67812991Y-60442778D01*
X67656466Y-60526443D01*
X67486627Y-60577963D01*
X67420443Y-60584481D01*
X67354260Y-60591000D01*
X67265740Y-60591000D01*
X67199557Y-60584481D01*
X67133373Y-60577963D01*
X66963534Y-60526443D01*
X66807009Y-60442778D01*
X66771271Y-60413448D01*
X66669814Y-60330186D01*
X66586552Y-60228729D01*
X66557222Y-60192991D01*
X66473557Y-60036466D01*
X66422037Y-59866627D01*
X66404641Y-59690000D01*
X66422037Y-59513373D01*
X66473557Y-59343534D01*
X66557222Y-59187009D01*
X66586552Y-59151271D01*
X66669814Y-59049814D01*
X66771271Y-58966552D01*
X66807009Y-58937222D01*
X66963534Y-58853557D01*
X67133373Y-58802037D01*
X67199558Y-58795518D01*
X67265740Y-58789000D01*
X67354260Y-58789000D01*
X67420442Y-58795518D01*
X67420442Y-58795518D01*
G37*
G36*
X45830442Y-58795518D02*
G01*
X45896627Y-58802037D01*
X46066466Y-58853557D01*
X46222991Y-58937222D01*
X46258729Y-58966552D01*
X46360186Y-59049814D01*
X46443448Y-59151271D01*
X46472778Y-59187009D01*
X46556443Y-59343534D01*
X46607963Y-59513373D01*
X46625359Y-59690000D01*
X46607963Y-59866627D01*
X46556443Y-60036466D01*
X46472778Y-60192991D01*
X46443448Y-60228729D01*
X46360186Y-60330186D01*
X46258729Y-60413448D01*
X46222991Y-60442778D01*
X46066466Y-60526443D01*
X45896627Y-60577963D01*
X45830443Y-60584481D01*
X45764260Y-60591000D01*
X45675740Y-60591000D01*
X45609557Y-60584481D01*
X45543373Y-60577963D01*
X45373534Y-60526443D01*
X45217009Y-60442778D01*
X45181271Y-60413448D01*
X45079814Y-60330186D01*
X44996552Y-60228729D01*
X44967222Y-60192991D01*
X44883557Y-60036466D01*
X44832037Y-59866627D01*
X44814641Y-59690000D01*
X44832037Y-59513373D01*
X44883557Y-59343534D01*
X44967222Y-59187009D01*
X44996552Y-59151271D01*
X45079814Y-59049814D01*
X45181271Y-58966552D01*
X45217009Y-58937222D01*
X45373534Y-58853557D01*
X45543373Y-58802037D01*
X45609558Y-58795518D01*
X45675740Y-58789000D01*
X45764260Y-58789000D01*
X45830442Y-58795518D01*
X45830442Y-58795518D01*
G37*
G36*
X49161000Y-60591000D02*
G01*
X47359000Y-60591000D01*
X47359000Y-58789000D01*
X49161000Y-58789000D01*
X49161000Y-60591000D01*
X49161000Y-60591000D01*
G37*
G36*
X43290442Y-58795518D02*
G01*
X43356627Y-58802037D01*
X43526466Y-58853557D01*
X43682991Y-58937222D01*
X43718729Y-58966552D01*
X43820186Y-59049814D01*
X43903448Y-59151271D01*
X43932778Y-59187009D01*
X44016443Y-59343534D01*
X44067963Y-59513373D01*
X44085359Y-59690000D01*
X44067963Y-59866627D01*
X44016443Y-60036466D01*
X43932778Y-60192991D01*
X43903448Y-60228729D01*
X43820186Y-60330186D01*
X43718729Y-60413448D01*
X43682991Y-60442778D01*
X43526466Y-60526443D01*
X43356627Y-60577963D01*
X43290443Y-60584481D01*
X43224260Y-60591000D01*
X43135740Y-60591000D01*
X43069557Y-60584481D01*
X43003373Y-60577963D01*
X42833534Y-60526443D01*
X42677009Y-60442778D01*
X42641271Y-60413448D01*
X42539814Y-60330186D01*
X42456552Y-60228729D01*
X42427222Y-60192991D01*
X42343557Y-60036466D01*
X42292037Y-59866627D01*
X42274641Y-59690000D01*
X42292037Y-59513373D01*
X42343557Y-59343534D01*
X42427222Y-59187009D01*
X42456552Y-59151271D01*
X42539814Y-59049814D01*
X42641271Y-58966552D01*
X42677009Y-58937222D01*
X42833534Y-58853557D01*
X43003373Y-58802037D01*
X43069558Y-58795518D01*
X43135740Y-58789000D01*
X43224260Y-58789000D01*
X43290442Y-58795518D01*
X43290442Y-58795518D01*
G37*
G36*
X40750442Y-58795518D02*
G01*
X40816627Y-58802037D01*
X40986466Y-58853557D01*
X41142991Y-58937222D01*
X41178729Y-58966552D01*
X41280186Y-59049814D01*
X41363448Y-59151271D01*
X41392778Y-59187009D01*
X41476443Y-59343534D01*
X41527963Y-59513373D01*
X41545359Y-59690000D01*
X41527963Y-59866627D01*
X41476443Y-60036466D01*
X41392778Y-60192991D01*
X41363448Y-60228729D01*
X41280186Y-60330186D01*
X41178729Y-60413448D01*
X41142991Y-60442778D01*
X40986466Y-60526443D01*
X40816627Y-60577963D01*
X40750443Y-60584481D01*
X40684260Y-60591000D01*
X40595740Y-60591000D01*
X40529557Y-60584481D01*
X40463373Y-60577963D01*
X40293534Y-60526443D01*
X40137009Y-60442778D01*
X40101271Y-60413448D01*
X39999814Y-60330186D01*
X39916552Y-60228729D01*
X39887222Y-60192991D01*
X39803557Y-60036466D01*
X39752037Y-59866627D01*
X39734641Y-59690000D01*
X39752037Y-59513373D01*
X39803557Y-59343534D01*
X39887222Y-59187009D01*
X39916552Y-59151271D01*
X39999814Y-59049814D01*
X40101271Y-58966552D01*
X40137009Y-58937222D01*
X40293534Y-58853557D01*
X40463373Y-58802037D01*
X40529558Y-58795518D01*
X40595740Y-58789000D01*
X40684260Y-58789000D01*
X40750442Y-58795518D01*
X40750442Y-58795518D01*
G37*
G36*
X38210442Y-58795518D02*
G01*
X38276627Y-58802037D01*
X38446466Y-58853557D01*
X38602991Y-58937222D01*
X38638729Y-58966552D01*
X38740186Y-59049814D01*
X38823448Y-59151271D01*
X38852778Y-59187009D01*
X38936443Y-59343534D01*
X38987963Y-59513373D01*
X39005359Y-59690000D01*
X38987963Y-59866627D01*
X38936443Y-60036466D01*
X38852778Y-60192991D01*
X38823448Y-60228729D01*
X38740186Y-60330186D01*
X38638729Y-60413448D01*
X38602991Y-60442778D01*
X38446466Y-60526443D01*
X38276627Y-60577963D01*
X38210443Y-60584481D01*
X38144260Y-60591000D01*
X38055740Y-60591000D01*
X37989557Y-60584481D01*
X37923373Y-60577963D01*
X37753534Y-60526443D01*
X37597009Y-60442778D01*
X37561271Y-60413448D01*
X37459814Y-60330186D01*
X37376552Y-60228729D01*
X37347222Y-60192991D01*
X37263557Y-60036466D01*
X37212037Y-59866627D01*
X37194641Y-59690000D01*
X37212037Y-59513373D01*
X37263557Y-59343534D01*
X37347222Y-59187009D01*
X37376552Y-59151271D01*
X37459814Y-59049814D01*
X37561271Y-58966552D01*
X37597009Y-58937222D01*
X37753534Y-58853557D01*
X37923373Y-58802037D01*
X37989558Y-58795518D01*
X38055740Y-58789000D01*
X38144260Y-58789000D01*
X38210442Y-58795518D01*
X38210442Y-58795518D01*
G37*
G36*
X59800442Y-58795518D02*
G01*
X59866627Y-58802037D01*
X60036466Y-58853557D01*
X60192991Y-58937222D01*
X60228729Y-58966552D01*
X60330186Y-59049814D01*
X60413448Y-59151271D01*
X60442778Y-59187009D01*
X60526443Y-59343534D01*
X60577963Y-59513373D01*
X60595359Y-59690000D01*
X60577963Y-59866627D01*
X60526443Y-60036466D01*
X60442778Y-60192991D01*
X60413448Y-60228729D01*
X60330186Y-60330186D01*
X60228729Y-60413448D01*
X60192991Y-60442778D01*
X60036466Y-60526443D01*
X59866627Y-60577963D01*
X59800443Y-60584481D01*
X59734260Y-60591000D01*
X59645740Y-60591000D01*
X59579557Y-60584481D01*
X59513373Y-60577963D01*
X59343534Y-60526443D01*
X59187009Y-60442778D01*
X59151271Y-60413448D01*
X59049814Y-60330186D01*
X58966552Y-60228729D01*
X58937222Y-60192991D01*
X58853557Y-60036466D01*
X58802037Y-59866627D01*
X58784641Y-59690000D01*
X58802037Y-59513373D01*
X58853557Y-59343534D01*
X58937222Y-59187009D01*
X58966552Y-59151271D01*
X59049814Y-59049814D01*
X59151271Y-58966552D01*
X59187009Y-58937222D01*
X59343534Y-58853557D01*
X59513373Y-58802037D01*
X59579558Y-58795518D01*
X59645740Y-58789000D01*
X59734260Y-58789000D01*
X59800442Y-58795518D01*
X59800442Y-58795518D01*
G37*
G36*
X58051000Y-60591000D02*
G01*
X56249000Y-60591000D01*
X56249000Y-58789000D01*
X58051000Y-58789000D01*
X58051000Y-60591000D01*
X58051000Y-60591000D01*
G37*
G36*
X64880442Y-58795518D02*
G01*
X64946627Y-58802037D01*
X65116466Y-58853557D01*
X65272991Y-58937222D01*
X65308729Y-58966552D01*
X65410186Y-59049814D01*
X65493448Y-59151271D01*
X65522778Y-59187009D01*
X65606443Y-59343534D01*
X65657963Y-59513373D01*
X65675359Y-59690000D01*
X65657963Y-59866627D01*
X65606443Y-60036466D01*
X65522778Y-60192991D01*
X65493448Y-60228729D01*
X65410186Y-60330186D01*
X65308729Y-60413448D01*
X65272991Y-60442778D01*
X65116466Y-60526443D01*
X64946627Y-60577963D01*
X64880443Y-60584481D01*
X64814260Y-60591000D01*
X64725740Y-60591000D01*
X64659557Y-60584481D01*
X64593373Y-60577963D01*
X64423534Y-60526443D01*
X64267009Y-60442778D01*
X64231271Y-60413448D01*
X64129814Y-60330186D01*
X64046552Y-60228729D01*
X64017222Y-60192991D01*
X63933557Y-60036466D01*
X63882037Y-59866627D01*
X63864641Y-59690000D01*
X63882037Y-59513373D01*
X63933557Y-59343534D01*
X64017222Y-59187009D01*
X64046552Y-59151271D01*
X64129814Y-59049814D01*
X64231271Y-58966552D01*
X64267009Y-58937222D01*
X64423534Y-58853557D01*
X64593373Y-58802037D01*
X64659558Y-58795518D01*
X64725740Y-58789000D01*
X64814260Y-58789000D01*
X64880442Y-58795518D01*
X64880442Y-58795518D01*
G37*
G36*
X62340442Y-58795518D02*
G01*
X62406627Y-58802037D01*
X62576466Y-58853557D01*
X62732991Y-58937222D01*
X62768729Y-58966552D01*
X62870186Y-59049814D01*
X62953448Y-59151271D01*
X62982778Y-59187009D01*
X63066443Y-59343534D01*
X63117963Y-59513373D01*
X63135359Y-59690000D01*
X63117963Y-59866627D01*
X63066443Y-60036466D01*
X62982778Y-60192991D01*
X62953448Y-60228729D01*
X62870186Y-60330186D01*
X62768729Y-60413448D01*
X62732991Y-60442778D01*
X62576466Y-60526443D01*
X62406627Y-60577963D01*
X62340443Y-60584481D01*
X62274260Y-60591000D01*
X62185740Y-60591000D01*
X62119557Y-60584481D01*
X62053373Y-60577963D01*
X61883534Y-60526443D01*
X61727009Y-60442778D01*
X61691271Y-60413448D01*
X61589814Y-60330186D01*
X61506552Y-60228729D01*
X61477222Y-60192991D01*
X61393557Y-60036466D01*
X61342037Y-59866627D01*
X61324641Y-59690000D01*
X61342037Y-59513373D01*
X61393557Y-59343534D01*
X61477222Y-59187009D01*
X61506552Y-59151271D01*
X61589814Y-59049814D01*
X61691271Y-58966552D01*
X61727009Y-58937222D01*
X61883534Y-58853557D01*
X62053373Y-58802037D01*
X62119558Y-58795518D01*
X62185740Y-58789000D01*
X62274260Y-58789000D01*
X62340442Y-58795518D01*
X62340442Y-58795518D01*
G37*
G36*
X15550318Y-57455153D02*
G01*
X15768885Y-57545687D01*
X15768887Y-57545688D01*
X15965593Y-57677122D01*
X16132878Y-57844407D01*
X16264312Y-58041113D01*
X16264313Y-58041115D01*
X16354847Y-58259682D01*
X16401000Y-58491710D01*
X16401000Y-58728290D01*
X16354847Y-58960318D01*
X16264313Y-59178885D01*
X16264312Y-59178887D01*
X16132878Y-59375593D01*
X15965593Y-59542878D01*
X15768887Y-59674312D01*
X15768886Y-59674313D01*
X15768885Y-59674313D01*
X15550318Y-59764847D01*
X15318290Y-59811000D01*
X15081710Y-59811000D01*
X14849682Y-59764847D01*
X14631115Y-59674313D01*
X14631114Y-59674313D01*
X14631113Y-59674312D01*
X14434407Y-59542878D01*
X14267122Y-59375593D01*
X14135688Y-59178887D01*
X14135687Y-59178885D01*
X14045153Y-58960318D01*
X13999000Y-58728290D01*
X13999000Y-58491710D01*
X14045153Y-58259682D01*
X14135687Y-58041115D01*
X14135688Y-58041113D01*
X14267122Y-57844407D01*
X14434407Y-57677122D01*
X14631113Y-57545688D01*
X14631115Y-57545687D01*
X14849682Y-57455153D01*
X15081710Y-57409000D01*
X15318290Y-57409000D01*
X15550318Y-57455153D01*
X15550318Y-57455153D01*
G37*
G36*
X30950318Y-57455153D02*
G01*
X31168885Y-57545687D01*
X31168887Y-57545688D01*
X31365593Y-57677122D01*
X31532878Y-57844407D01*
X31664312Y-58041113D01*
X31664313Y-58041115D01*
X31754847Y-58259682D01*
X31801000Y-58491710D01*
X31801000Y-58728290D01*
X31754847Y-58960318D01*
X31664313Y-59178885D01*
X31664312Y-59178887D01*
X31532878Y-59375593D01*
X31365593Y-59542878D01*
X31168887Y-59674312D01*
X31168886Y-59674313D01*
X31168885Y-59674313D01*
X30950318Y-59764847D01*
X30718290Y-59811000D01*
X30481710Y-59811000D01*
X30249682Y-59764847D01*
X30031115Y-59674313D01*
X30031114Y-59674313D01*
X30031113Y-59674312D01*
X29834407Y-59542878D01*
X29667122Y-59375593D01*
X29535688Y-59178887D01*
X29535687Y-59178885D01*
X29445153Y-58960318D01*
X29399000Y-58728290D01*
X29399000Y-58491710D01*
X29445153Y-58259682D01*
X29535687Y-58041115D01*
X29535688Y-58041113D01*
X29667122Y-57844407D01*
X29834407Y-57677122D01*
X30031113Y-57545688D01*
X30031115Y-57545687D01*
X30249682Y-57455153D01*
X30481710Y-57409000D01*
X30718290Y-57409000D01*
X30950318Y-57455153D01*
X30950318Y-57455153D01*
G37*
G36*
X75715562Y-51567181D02*
G01*
X75750481Y-51577774D01*
X75782663Y-51594976D01*
X75810873Y-51618127D01*
X75834024Y-51646337D01*
X75851226Y-51678519D01*
X75861819Y-51713438D01*
X75866000Y-51755895D01*
X75866000Y-53222105D01*
X75861819Y-53264562D01*
X75851226Y-53299481D01*
X75834024Y-53331663D01*
X75810873Y-53359873D01*
X75782663Y-53383024D01*
X75750481Y-53400226D01*
X75715562Y-53410819D01*
X75673105Y-53415000D01*
X74531895Y-53415000D01*
X74489438Y-53410819D01*
X74454519Y-53400226D01*
X74422337Y-53383024D01*
X74394127Y-53359873D01*
X74370976Y-53331663D01*
X74353774Y-53299481D01*
X74343181Y-53264562D01*
X74339000Y-53222105D01*
X74339000Y-51755895D01*
X74343181Y-51713438D01*
X74353774Y-51678519D01*
X74370976Y-51646337D01*
X74394127Y-51618127D01*
X74422337Y-51594976D01*
X74454519Y-51577774D01*
X74489438Y-51567181D01*
X74531895Y-51563000D01*
X75673105Y-51563000D01*
X75715562Y-51567181D01*
X75715562Y-51567181D01*
G37*
G36*
X72740562Y-51567181D02*
G01*
X72775481Y-51577774D01*
X72807663Y-51594976D01*
X72835873Y-51618127D01*
X72859024Y-51646337D01*
X72876226Y-51678519D01*
X72886819Y-51713438D01*
X72891000Y-51755895D01*
X72891000Y-53222105D01*
X72886819Y-53264562D01*
X72876226Y-53299481D01*
X72859024Y-53331663D01*
X72835873Y-53359873D01*
X72807663Y-53383024D01*
X72775481Y-53400226D01*
X72740562Y-53410819D01*
X72698105Y-53415000D01*
X71556895Y-53415000D01*
X71514438Y-53410819D01*
X71479519Y-53400226D01*
X71447337Y-53383024D01*
X71419127Y-53359873D01*
X71395976Y-53331663D01*
X71378774Y-53299481D01*
X71368181Y-53264562D01*
X71364000Y-53222105D01*
X71364000Y-51755895D01*
X71368181Y-51713438D01*
X71378774Y-51678519D01*
X71395976Y-51646337D01*
X71419127Y-51618127D01*
X71447337Y-51594976D01*
X71479519Y-51577774D01*
X71514438Y-51567181D01*
X71556895Y-51563000D01*
X72698105Y-51563000D01*
X72740562Y-51567181D01*
X72740562Y-51567181D01*
G37*
G36*
X67271000Y-51693000D02*
G01*
X65269000Y-51693000D01*
X65269000Y-50791000D01*
X67271000Y-50791000D01*
X67271000Y-51693000D01*
X67271000Y-51693000D01*
G37*
G36*
X64271000Y-50743000D02*
G01*
X62269000Y-50743000D01*
X62269000Y-49841000D01*
X64271000Y-49841000D01*
X64271000Y-50743000D01*
X64271000Y-50743000D01*
G37*
G36*
X72785562Y-48227181D02*
G01*
X72820481Y-48237774D01*
X72852663Y-48254976D01*
X72880873Y-48278127D01*
X72904024Y-48306337D01*
X72921226Y-48338519D01*
X72931819Y-48373438D01*
X72936000Y-48415895D01*
X72936000Y-49882105D01*
X72931819Y-49924562D01*
X72921226Y-49959481D01*
X72904024Y-49991663D01*
X72880873Y-50019873D01*
X72852663Y-50043024D01*
X72820481Y-50060226D01*
X72785562Y-50070819D01*
X72743105Y-50075000D01*
X71601895Y-50075000D01*
X71559438Y-50070819D01*
X71524519Y-50060226D01*
X71492337Y-50043024D01*
X71464127Y-50019873D01*
X71440976Y-49991663D01*
X71423774Y-49959481D01*
X71413181Y-49924562D01*
X71409000Y-49882105D01*
X71409000Y-48415895D01*
X71413181Y-48373438D01*
X71423774Y-48338519D01*
X71440976Y-48306337D01*
X71464127Y-48278127D01*
X71492337Y-48254976D01*
X71524519Y-48237774D01*
X71559438Y-48227181D01*
X71601895Y-48223000D01*
X72743105Y-48223000D01*
X72785562Y-48227181D01*
X72785562Y-48227181D01*
G37*
G36*
X75760562Y-48227181D02*
G01*
X75795481Y-48237774D01*
X75827663Y-48254976D01*
X75855873Y-48278127D01*
X75879024Y-48306337D01*
X75896226Y-48338519D01*
X75906819Y-48373438D01*
X75911000Y-48415895D01*
X75911000Y-49882105D01*
X75906819Y-49924562D01*
X75896226Y-49959481D01*
X75879024Y-49991663D01*
X75855873Y-50019873D01*
X75827663Y-50043024D01*
X75795481Y-50060226D01*
X75760562Y-50070819D01*
X75718105Y-50075000D01*
X74576895Y-50075000D01*
X74534438Y-50070819D01*
X74499519Y-50060226D01*
X74467337Y-50043024D01*
X74439127Y-50019873D01*
X74415976Y-49991663D01*
X74398774Y-49959481D01*
X74388181Y-49924562D01*
X74384000Y-49882105D01*
X74384000Y-48415895D01*
X74388181Y-48373438D01*
X74398774Y-48338519D01*
X74415976Y-48306337D01*
X74439127Y-48278127D01*
X74467337Y-48254976D01*
X74499519Y-48237774D01*
X74534438Y-48227181D01*
X74576895Y-48223000D01*
X75718105Y-48223000D01*
X75760562Y-48227181D01*
X75760562Y-48227181D01*
G37*
G36*
X67271000Y-49793000D02*
G01*
X65269000Y-49793000D01*
X65269000Y-48891000D01*
X67271000Y-48891000D01*
X67271000Y-49793000D01*
X67271000Y-49793000D01*
G37*
G36*
X57456564Y-47249389D02*
G01*
X57647833Y-47328615D01*
X57647835Y-47328616D01*
X57819973Y-47443635D01*
X57966365Y-47590027D01*
X58081385Y-47762167D01*
X58160611Y-47953436D01*
X58201000Y-48156484D01*
X58201000Y-48363516D01*
X58160611Y-48566564D01*
X58081385Y-48757833D01*
X58081384Y-48757835D01*
X57966365Y-48929973D01*
X57819973Y-49076365D01*
X57647835Y-49191384D01*
X57647834Y-49191385D01*
X57647833Y-49191385D01*
X57456564Y-49270611D01*
X57253516Y-49311000D01*
X57046484Y-49311000D01*
X56843436Y-49270611D01*
X56652167Y-49191385D01*
X56652166Y-49191385D01*
X56652165Y-49191384D01*
X56480027Y-49076365D01*
X56333635Y-48929973D01*
X56218616Y-48757835D01*
X56218615Y-48757833D01*
X56139389Y-48566564D01*
X56099000Y-48363516D01*
X56099000Y-48156484D01*
X56139389Y-47953436D01*
X56218615Y-47762167D01*
X56333635Y-47590027D01*
X56480027Y-47443635D01*
X56652165Y-47328616D01*
X56652167Y-47328615D01*
X56843436Y-47249389D01*
X57046484Y-47209000D01*
X57253516Y-47209000D01*
X57456564Y-47249389D01*
X57456564Y-47249389D01*
G37*
G36*
X50956564Y-47249389D02*
G01*
X51147833Y-47328615D01*
X51147835Y-47328616D01*
X51319973Y-47443635D01*
X51466365Y-47590027D01*
X51581385Y-47762167D01*
X51660611Y-47953436D01*
X51701000Y-48156484D01*
X51701000Y-48363516D01*
X51660611Y-48566564D01*
X51581385Y-48757833D01*
X51581384Y-48757835D01*
X51466365Y-48929973D01*
X51319973Y-49076365D01*
X51147835Y-49191384D01*
X51147834Y-49191385D01*
X51147833Y-49191385D01*
X50956564Y-49270611D01*
X50753516Y-49311000D01*
X50546484Y-49311000D01*
X50343436Y-49270611D01*
X50152167Y-49191385D01*
X50152166Y-49191385D01*
X50152165Y-49191384D01*
X49980027Y-49076365D01*
X49833635Y-48929973D01*
X49718616Y-48757835D01*
X49718615Y-48757833D01*
X49639389Y-48566564D01*
X49599000Y-48363516D01*
X49599000Y-48156484D01*
X49639389Y-47953436D01*
X49718615Y-47762167D01*
X49833635Y-47590027D01*
X49980027Y-47443635D01*
X50152165Y-47328616D01*
X50152167Y-47328615D01*
X50343436Y-47249389D01*
X50546484Y-47209000D01*
X50753516Y-47209000D01*
X50956564Y-47249389D01*
X50956564Y-47249389D01*
G37*
G36*
X44756564Y-47249389D02*
G01*
X44947833Y-47328615D01*
X44947835Y-47328616D01*
X45119973Y-47443635D01*
X45266365Y-47590027D01*
X45381385Y-47762167D01*
X45460611Y-47953436D01*
X45501000Y-48156484D01*
X45501000Y-48363516D01*
X45460611Y-48566564D01*
X45381385Y-48757833D01*
X45381384Y-48757835D01*
X45266365Y-48929973D01*
X45119973Y-49076365D01*
X44947835Y-49191384D01*
X44947834Y-49191385D01*
X44947833Y-49191385D01*
X44756564Y-49270611D01*
X44553516Y-49311000D01*
X44346484Y-49311000D01*
X44143436Y-49270611D01*
X43952167Y-49191385D01*
X43952166Y-49191385D01*
X43952165Y-49191384D01*
X43780027Y-49076365D01*
X43633635Y-48929973D01*
X43518616Y-48757835D01*
X43518615Y-48757833D01*
X43439389Y-48566564D01*
X43399000Y-48363516D01*
X43399000Y-48156484D01*
X43439389Y-47953436D01*
X43518615Y-47762167D01*
X43633635Y-47590027D01*
X43780027Y-47443635D01*
X43952165Y-47328616D01*
X43952167Y-47328615D01*
X44143436Y-47249389D01*
X44346484Y-47209000D01*
X44553516Y-47209000D01*
X44756564Y-47249389D01*
X44756564Y-47249389D01*
G37*
G36*
X38256564Y-47249389D02*
G01*
X38447833Y-47328615D01*
X38447835Y-47328616D01*
X38619973Y-47443635D01*
X38766365Y-47590027D01*
X38881385Y-47762167D01*
X38960611Y-47953436D01*
X39001000Y-48156484D01*
X39001000Y-48363516D01*
X38960611Y-48566564D01*
X38881385Y-48757833D01*
X38881384Y-48757835D01*
X38766365Y-48929973D01*
X38619973Y-49076365D01*
X38447835Y-49191384D01*
X38447834Y-49191385D01*
X38447833Y-49191385D01*
X38256564Y-49270611D01*
X38053516Y-49311000D01*
X37846484Y-49311000D01*
X37643436Y-49270611D01*
X37452167Y-49191385D01*
X37452166Y-49191385D01*
X37452165Y-49191384D01*
X37280027Y-49076365D01*
X37133635Y-48929973D01*
X37018616Y-48757835D01*
X37018615Y-48757833D01*
X36939389Y-48566564D01*
X36899000Y-48363516D01*
X36899000Y-48156484D01*
X36939389Y-47953436D01*
X37018615Y-47762167D01*
X37133635Y-47590027D01*
X37280027Y-47443635D01*
X37452165Y-47328616D01*
X37452167Y-47328615D01*
X37643436Y-47249389D01*
X37846484Y-47209000D01*
X38053516Y-47209000D01*
X38256564Y-47249389D01*
X38256564Y-47249389D01*
G37*
G36*
X64530562Y-43147181D02*
G01*
X64565481Y-43157774D01*
X64597663Y-43174976D01*
X64625873Y-43198127D01*
X64649024Y-43226337D01*
X64666226Y-43258519D01*
X64676819Y-43293438D01*
X64681000Y-43335895D01*
X64681000Y-44802105D01*
X64676819Y-44844562D01*
X64666226Y-44879481D01*
X64649024Y-44911663D01*
X64625873Y-44939873D01*
X64597663Y-44963024D01*
X64565481Y-44980226D01*
X64530562Y-44990819D01*
X64488105Y-44995000D01*
X63346895Y-44995000D01*
X63304438Y-44990819D01*
X63269519Y-44980226D01*
X63237337Y-44963024D01*
X63209127Y-44939873D01*
X63185976Y-44911663D01*
X63168774Y-44879481D01*
X63158181Y-44844562D01*
X63154000Y-44802105D01*
X63154000Y-43335895D01*
X63158181Y-43293438D01*
X63168774Y-43258519D01*
X63185976Y-43226337D01*
X63209127Y-43198127D01*
X63237337Y-43174976D01*
X63269519Y-43157774D01*
X63304438Y-43147181D01*
X63346895Y-43143000D01*
X64488105Y-43143000D01*
X64530562Y-43147181D01*
X64530562Y-43147181D01*
G37*
G36*
X67505562Y-43147181D02*
G01*
X67540481Y-43157774D01*
X67572663Y-43174976D01*
X67600873Y-43198127D01*
X67624024Y-43226337D01*
X67641226Y-43258519D01*
X67651819Y-43293438D01*
X67656000Y-43335895D01*
X67656000Y-44802105D01*
X67651819Y-44844562D01*
X67641226Y-44879481D01*
X67624024Y-44911663D01*
X67600873Y-44939873D01*
X67572663Y-44963024D01*
X67540481Y-44980226D01*
X67505562Y-44990819D01*
X67463105Y-44995000D01*
X66321895Y-44995000D01*
X66279438Y-44990819D01*
X66244519Y-44980226D01*
X66212337Y-44963024D01*
X66184127Y-44939873D01*
X66160976Y-44911663D01*
X66143774Y-44879481D01*
X66133181Y-44844562D01*
X66129000Y-44802105D01*
X66129000Y-43335895D01*
X66133181Y-43293438D01*
X66143774Y-43258519D01*
X66160976Y-43226337D01*
X66184127Y-43198127D01*
X66212337Y-43174976D01*
X66244519Y-43157774D01*
X66279438Y-43147181D01*
X66321895Y-43143000D01*
X67463105Y-43143000D01*
X67505562Y-43147181D01*
X67505562Y-43147181D01*
G37*
G36*
X38256564Y-42749389D02*
G01*
X38447833Y-42828615D01*
X38447835Y-42828616D01*
X38619973Y-42943635D01*
X38766365Y-43090027D01*
X38881315Y-43262061D01*
X38881385Y-43262167D01*
X38960611Y-43453436D01*
X39001000Y-43656484D01*
X39001000Y-43863516D01*
X38960611Y-44066564D01*
X38881385Y-44257833D01*
X38881384Y-44257835D01*
X38766365Y-44429973D01*
X38619973Y-44576365D01*
X38447835Y-44691384D01*
X38447834Y-44691385D01*
X38447833Y-44691385D01*
X38256564Y-44770611D01*
X38053516Y-44811000D01*
X37846484Y-44811000D01*
X37643436Y-44770611D01*
X37452167Y-44691385D01*
X37452166Y-44691385D01*
X37452165Y-44691384D01*
X37280027Y-44576365D01*
X37133635Y-44429973D01*
X37018616Y-44257835D01*
X37018615Y-44257833D01*
X36939389Y-44066564D01*
X36899000Y-43863516D01*
X36899000Y-43656484D01*
X36939389Y-43453436D01*
X37018615Y-43262167D01*
X37018686Y-43262061D01*
X37133635Y-43090027D01*
X37280027Y-42943635D01*
X37452165Y-42828616D01*
X37452167Y-42828615D01*
X37643436Y-42749389D01*
X37846484Y-42709000D01*
X38053516Y-42709000D01*
X38256564Y-42749389D01*
X38256564Y-42749389D01*
G37*
G36*
X50956564Y-42749389D02*
G01*
X51147833Y-42828615D01*
X51147835Y-42828616D01*
X51319973Y-42943635D01*
X51466365Y-43090027D01*
X51581315Y-43262061D01*
X51581385Y-43262167D01*
X51660611Y-43453436D01*
X51701000Y-43656484D01*
X51701000Y-43863516D01*
X51660611Y-44066564D01*
X51581385Y-44257833D01*
X51581384Y-44257835D01*
X51466365Y-44429973D01*
X51319973Y-44576365D01*
X51147835Y-44691384D01*
X51147834Y-44691385D01*
X51147833Y-44691385D01*
X50956564Y-44770611D01*
X50753516Y-44811000D01*
X50546484Y-44811000D01*
X50343436Y-44770611D01*
X50152167Y-44691385D01*
X50152166Y-44691385D01*
X50152165Y-44691384D01*
X49980027Y-44576365D01*
X49833635Y-44429973D01*
X49718616Y-44257835D01*
X49718615Y-44257833D01*
X49639389Y-44066564D01*
X49599000Y-43863516D01*
X49599000Y-43656484D01*
X49639389Y-43453436D01*
X49718615Y-43262167D01*
X49718686Y-43262061D01*
X49833635Y-43090027D01*
X49980027Y-42943635D01*
X50152165Y-42828616D01*
X50152167Y-42828615D01*
X50343436Y-42749389D01*
X50546484Y-42709000D01*
X50753516Y-42709000D01*
X50956564Y-42749389D01*
X50956564Y-42749389D01*
G37*
G36*
X44756564Y-42749389D02*
G01*
X44947833Y-42828615D01*
X44947835Y-42828616D01*
X45119973Y-42943635D01*
X45266365Y-43090027D01*
X45381315Y-43262061D01*
X45381385Y-43262167D01*
X45460611Y-43453436D01*
X45501000Y-43656484D01*
X45501000Y-43863516D01*
X45460611Y-44066564D01*
X45381385Y-44257833D01*
X45381384Y-44257835D01*
X45266365Y-44429973D01*
X45119973Y-44576365D01*
X44947835Y-44691384D01*
X44947834Y-44691385D01*
X44947833Y-44691385D01*
X44756564Y-44770611D01*
X44553516Y-44811000D01*
X44346484Y-44811000D01*
X44143436Y-44770611D01*
X43952167Y-44691385D01*
X43952166Y-44691385D01*
X43952165Y-44691384D01*
X43780027Y-44576365D01*
X43633635Y-44429973D01*
X43518616Y-44257835D01*
X43518615Y-44257833D01*
X43439389Y-44066564D01*
X43399000Y-43863516D01*
X43399000Y-43656484D01*
X43439389Y-43453436D01*
X43518615Y-43262167D01*
X43518686Y-43262061D01*
X43633635Y-43090027D01*
X43780027Y-42943635D01*
X43952165Y-42828616D01*
X43952167Y-42828615D01*
X44143436Y-42749389D01*
X44346484Y-42709000D01*
X44553516Y-42709000D01*
X44756564Y-42749389D01*
X44756564Y-42749389D01*
G37*
G36*
X57456564Y-42749389D02*
G01*
X57647833Y-42828615D01*
X57647835Y-42828616D01*
X57819973Y-42943635D01*
X57966365Y-43090027D01*
X58081315Y-43262061D01*
X58081385Y-43262167D01*
X58160611Y-43453436D01*
X58201000Y-43656484D01*
X58201000Y-43863516D01*
X58160611Y-44066564D01*
X58081385Y-44257833D01*
X58081384Y-44257835D01*
X57966365Y-44429973D01*
X57819973Y-44576365D01*
X57647835Y-44691384D01*
X57647834Y-44691385D01*
X57647833Y-44691385D01*
X57456564Y-44770611D01*
X57253516Y-44811000D01*
X57046484Y-44811000D01*
X56843436Y-44770611D01*
X56652167Y-44691385D01*
X56652166Y-44691385D01*
X56652165Y-44691384D01*
X56480027Y-44576365D01*
X56333635Y-44429973D01*
X56218616Y-44257835D01*
X56218615Y-44257833D01*
X56139389Y-44066564D01*
X56099000Y-43863516D01*
X56099000Y-43656484D01*
X56139389Y-43453436D01*
X56218615Y-43262167D01*
X56218686Y-43262061D01*
X56333635Y-43090027D01*
X56480027Y-42943635D01*
X56652165Y-42828616D01*
X56652167Y-42828615D01*
X56843436Y-42749389D01*
X57046484Y-42709000D01*
X57253516Y-42709000D01*
X57456564Y-42749389D01*
X57456564Y-42749389D01*
G37*
G36*
X72145000Y-43819000D02*
G01*
X70143000Y-43819000D01*
X70143000Y-42917000D01*
X72145000Y-42917000D01*
X72145000Y-43819000D01*
X72145000Y-43819000D01*
G37*
G36*
X75145000Y-42869000D02*
G01*
X73143000Y-42869000D01*
X73143000Y-41967000D01*
X75145000Y-41967000D01*
X75145000Y-42869000D01*
X75145000Y-42869000D01*
G37*
G36*
X72145000Y-41919000D02*
G01*
X70143000Y-41919000D01*
X70143000Y-41017000D01*
X72145000Y-41017000D01*
X72145000Y-41919000D01*
X72145000Y-41919000D01*
G37*
G36*
X58815562Y-39083181D02*
G01*
X58850481Y-39093774D01*
X58882663Y-39110976D01*
X58910873Y-39134127D01*
X58934024Y-39162337D01*
X58951226Y-39194519D01*
X58961819Y-39229438D01*
X58966000Y-39271895D01*
X58966000Y-40738105D01*
X58961819Y-40780562D01*
X58951226Y-40815481D01*
X58934024Y-40847663D01*
X58910873Y-40875873D01*
X58882663Y-40899024D01*
X58850481Y-40916226D01*
X58815562Y-40926819D01*
X58773105Y-40931000D01*
X57631895Y-40931000D01*
X57589438Y-40926819D01*
X57554519Y-40916226D01*
X57522337Y-40899024D01*
X57494127Y-40875873D01*
X57470976Y-40847663D01*
X57453774Y-40815481D01*
X57443181Y-40780562D01*
X57439000Y-40738105D01*
X57439000Y-39271895D01*
X57443181Y-39229438D01*
X57453774Y-39194519D01*
X57470976Y-39162337D01*
X57494127Y-39134127D01*
X57522337Y-39110976D01*
X57554519Y-39093774D01*
X57589438Y-39083181D01*
X57631895Y-39079000D01*
X58773105Y-39079000D01*
X58815562Y-39083181D01*
X58815562Y-39083181D01*
G37*
G36*
X61790562Y-39083181D02*
G01*
X61825481Y-39093774D01*
X61857663Y-39110976D01*
X61885873Y-39134127D01*
X61909024Y-39162337D01*
X61926226Y-39194519D01*
X61936819Y-39229438D01*
X61941000Y-39271895D01*
X61941000Y-40738105D01*
X61936819Y-40780562D01*
X61926226Y-40815481D01*
X61909024Y-40847663D01*
X61885873Y-40875873D01*
X61857663Y-40899024D01*
X61825481Y-40916226D01*
X61790562Y-40926819D01*
X61748105Y-40931000D01*
X60606895Y-40931000D01*
X60564438Y-40926819D01*
X60529519Y-40916226D01*
X60497337Y-40899024D01*
X60469127Y-40875873D01*
X60445976Y-40847663D01*
X60428774Y-40815481D01*
X60418181Y-40780562D01*
X60414000Y-40738105D01*
X60414000Y-39271895D01*
X60418181Y-39229438D01*
X60428774Y-39194519D01*
X60445976Y-39162337D01*
X60469127Y-39134127D01*
X60497337Y-39110976D01*
X60529519Y-39093774D01*
X60564438Y-39083181D01*
X60606895Y-39079000D01*
X61748105Y-39079000D01*
X61790562Y-39083181D01*
X61790562Y-39083181D01*
G37*
G36*
X64530562Y-38067181D02*
G01*
X64565481Y-38077774D01*
X64597663Y-38094976D01*
X64625873Y-38118127D01*
X64649024Y-38146337D01*
X64666226Y-38178519D01*
X64676819Y-38213438D01*
X64681000Y-38255895D01*
X64681000Y-39722105D01*
X64676819Y-39764562D01*
X64666226Y-39799481D01*
X64649024Y-39831663D01*
X64625873Y-39859873D01*
X64597663Y-39883024D01*
X64565481Y-39900226D01*
X64530562Y-39910819D01*
X64488105Y-39915000D01*
X63346895Y-39915000D01*
X63304438Y-39910819D01*
X63269519Y-39900226D01*
X63237337Y-39883024D01*
X63209127Y-39859873D01*
X63185976Y-39831663D01*
X63168774Y-39799481D01*
X63158181Y-39764562D01*
X63154000Y-39722105D01*
X63154000Y-38255895D01*
X63158181Y-38213438D01*
X63168774Y-38178519D01*
X63185976Y-38146337D01*
X63209127Y-38118127D01*
X63237337Y-38094976D01*
X63269519Y-38077774D01*
X63304438Y-38067181D01*
X63346895Y-38063000D01*
X64488105Y-38063000D01*
X64530562Y-38067181D01*
X64530562Y-38067181D01*
G37*
G36*
X67505562Y-38067181D02*
G01*
X67540481Y-38077774D01*
X67572663Y-38094976D01*
X67600873Y-38118127D01*
X67624024Y-38146337D01*
X67641226Y-38178519D01*
X67651819Y-38213438D01*
X67656000Y-38255895D01*
X67656000Y-39722105D01*
X67651819Y-39764562D01*
X67641226Y-39799481D01*
X67624024Y-39831663D01*
X67600873Y-39859873D01*
X67572663Y-39883024D01*
X67540481Y-39900226D01*
X67505562Y-39910819D01*
X67463105Y-39915000D01*
X66321895Y-39915000D01*
X66279438Y-39910819D01*
X66244519Y-39900226D01*
X66212337Y-39883024D01*
X66184127Y-39859873D01*
X66160976Y-39831663D01*
X66143774Y-39799481D01*
X66133181Y-39764562D01*
X66129000Y-39722105D01*
X66129000Y-38255895D01*
X66133181Y-38213438D01*
X66143774Y-38178519D01*
X66160976Y-38146337D01*
X66184127Y-38118127D01*
X66212337Y-38094976D01*
X66244519Y-38077774D01*
X66279438Y-38067181D01*
X66321895Y-38063000D01*
X67463105Y-38063000D01*
X67505562Y-38067181D01*
X67505562Y-38067181D01*
G37*
G36*
X58815562Y-34003181D02*
G01*
X58850481Y-34013774D01*
X58882663Y-34030976D01*
X58910873Y-34054127D01*
X58934024Y-34082337D01*
X58951226Y-34114519D01*
X58961819Y-34149438D01*
X58966000Y-34191895D01*
X58966000Y-35658105D01*
X58961819Y-35700562D01*
X58951226Y-35735481D01*
X58934024Y-35767663D01*
X58910873Y-35795873D01*
X58882663Y-35819024D01*
X58850481Y-35836226D01*
X58815562Y-35846819D01*
X58773105Y-35851000D01*
X57631895Y-35851000D01*
X57589438Y-35846819D01*
X57554519Y-35836226D01*
X57522337Y-35819024D01*
X57494127Y-35795873D01*
X57470976Y-35767663D01*
X57453774Y-35735481D01*
X57443181Y-35700562D01*
X57439000Y-35658105D01*
X57439000Y-34191895D01*
X57443181Y-34149438D01*
X57453774Y-34114519D01*
X57470976Y-34082337D01*
X57494127Y-34054127D01*
X57522337Y-34030976D01*
X57554519Y-34013774D01*
X57589438Y-34003181D01*
X57631895Y-33999000D01*
X58773105Y-33999000D01*
X58815562Y-34003181D01*
X58815562Y-34003181D01*
G37*
G36*
X61790562Y-34003181D02*
G01*
X61825481Y-34013774D01*
X61857663Y-34030976D01*
X61885873Y-34054127D01*
X61909024Y-34082337D01*
X61926226Y-34114519D01*
X61936819Y-34149438D01*
X61941000Y-34191895D01*
X61941000Y-35658105D01*
X61936819Y-35700562D01*
X61926226Y-35735481D01*
X61909024Y-35767663D01*
X61885873Y-35795873D01*
X61857663Y-35819024D01*
X61825481Y-35836226D01*
X61790562Y-35846819D01*
X61748105Y-35851000D01*
X60606895Y-35851000D01*
X60564438Y-35846819D01*
X60529519Y-35836226D01*
X60497337Y-35819024D01*
X60469127Y-35795873D01*
X60445976Y-35767663D01*
X60428774Y-35735481D01*
X60418181Y-35700562D01*
X60414000Y-35658105D01*
X60414000Y-34191895D01*
X60418181Y-34149438D01*
X60428774Y-34114519D01*
X60445976Y-34082337D01*
X60469127Y-34054127D01*
X60497337Y-34030976D01*
X60529519Y-34013774D01*
X60564438Y-34003181D01*
X60606895Y-33999000D01*
X61748105Y-33999000D01*
X61790562Y-34003181D01*
X61790562Y-34003181D01*
G37*
G36*
X75831000Y-35572000D02*
G01*
X74029000Y-35572000D01*
X74029000Y-33770000D01*
X75831000Y-33770000D01*
X75831000Y-35572000D01*
X75831000Y-35572000D01*
G37*
G36*
X67505562Y-32987181D02*
G01*
X67540481Y-32997774D01*
X67572663Y-33014976D01*
X67600873Y-33038127D01*
X67624024Y-33066337D01*
X67641226Y-33098519D01*
X67651819Y-33133438D01*
X67656000Y-33175895D01*
X67656000Y-34642105D01*
X67651819Y-34684562D01*
X67641226Y-34719481D01*
X67624024Y-34751663D01*
X67600873Y-34779873D01*
X67572663Y-34803024D01*
X67540481Y-34820226D01*
X67505562Y-34830819D01*
X67463105Y-34835000D01*
X66321895Y-34835000D01*
X66279438Y-34830819D01*
X66244519Y-34820226D01*
X66212337Y-34803024D01*
X66184127Y-34779873D01*
X66160976Y-34751663D01*
X66143774Y-34719481D01*
X66133181Y-34684562D01*
X66129000Y-34642105D01*
X66129000Y-33175895D01*
X66133181Y-33133438D01*
X66143774Y-33098519D01*
X66160976Y-33066337D01*
X66184127Y-33038127D01*
X66212337Y-33014976D01*
X66244519Y-32997774D01*
X66279438Y-32987181D01*
X66321895Y-32983000D01*
X67463105Y-32983000D01*
X67505562Y-32987181D01*
X67505562Y-32987181D01*
G37*
G36*
X64530562Y-32987181D02*
G01*
X64565481Y-32997774D01*
X64597663Y-33014976D01*
X64625873Y-33038127D01*
X64649024Y-33066337D01*
X64666226Y-33098519D01*
X64676819Y-33133438D01*
X64681000Y-33175895D01*
X64681000Y-34642105D01*
X64676819Y-34684562D01*
X64666226Y-34719481D01*
X64649024Y-34751663D01*
X64625873Y-34779873D01*
X64597663Y-34803024D01*
X64565481Y-34820226D01*
X64530562Y-34830819D01*
X64488105Y-34835000D01*
X63346895Y-34835000D01*
X63304438Y-34830819D01*
X63269519Y-34820226D01*
X63237337Y-34803024D01*
X63209127Y-34779873D01*
X63185976Y-34751663D01*
X63168774Y-34719481D01*
X63158181Y-34684562D01*
X63154000Y-34642105D01*
X63154000Y-33175895D01*
X63158181Y-33133438D01*
X63168774Y-33098519D01*
X63185976Y-33066337D01*
X63209127Y-33038127D01*
X63237337Y-33014976D01*
X63269519Y-32997774D01*
X63304438Y-32987181D01*
X63346895Y-32983000D01*
X64488105Y-32983000D01*
X64530562Y-32987181D01*
X64530562Y-32987181D01*
G37*
G36*
X75040442Y-31236518D02*
G01*
X75106627Y-31243037D01*
X75276466Y-31294557D01*
X75432991Y-31378222D01*
X75468729Y-31407552D01*
X75570186Y-31490814D01*
X75653448Y-31592271D01*
X75682778Y-31628009D01*
X75766443Y-31784534D01*
X75817963Y-31954373D01*
X75835359Y-32131000D01*
X75817963Y-32307627D01*
X75766443Y-32477466D01*
X75682778Y-32633991D01*
X75653448Y-32669729D01*
X75570186Y-32771186D01*
X75468729Y-32854448D01*
X75432991Y-32883778D01*
X75276466Y-32967443D01*
X75106627Y-33018963D01*
X75040442Y-33025482D01*
X74974260Y-33032000D01*
X74885740Y-33032000D01*
X74819558Y-33025482D01*
X74753373Y-33018963D01*
X74583534Y-32967443D01*
X74427009Y-32883778D01*
X74391271Y-32854448D01*
X74289814Y-32771186D01*
X74206552Y-32669729D01*
X74177222Y-32633991D01*
X74093557Y-32477466D01*
X74042037Y-32307627D01*
X74024641Y-32131000D01*
X74042037Y-31954373D01*
X74093557Y-31784534D01*
X74177222Y-31628009D01*
X74206552Y-31592271D01*
X74289814Y-31490814D01*
X74391271Y-31407552D01*
X74427009Y-31378222D01*
X74583534Y-31294557D01*
X74753373Y-31243037D01*
X74819558Y-31236518D01*
X74885740Y-31230000D01*
X74974260Y-31230000D01*
X75040442Y-31236518D01*
X75040442Y-31236518D01*
G37*
G36*
X54621000Y-31991000D02*
G01*
X52019000Y-31991000D01*
X52019000Y-30889000D01*
X54621000Y-30889000D01*
X54621000Y-31991000D01*
X54621000Y-31991000D01*
G37*
G36*
X39421000Y-31991000D02*
G01*
X36819000Y-31991000D01*
X36819000Y-30889000D01*
X39421000Y-30889000D01*
X39421000Y-31991000D01*
X39421000Y-31991000D01*
G37*
G36*
X61573062Y-28923181D02*
G01*
X61607981Y-28933774D01*
X61640163Y-28950976D01*
X61668373Y-28974127D01*
X61691524Y-29002337D01*
X61708726Y-29034519D01*
X61719319Y-29069438D01*
X61723500Y-29111895D01*
X61723500Y-30578105D01*
X61719319Y-30620562D01*
X61708726Y-30655481D01*
X61691524Y-30687663D01*
X61668373Y-30715873D01*
X61640163Y-30739024D01*
X61607981Y-30756226D01*
X61573062Y-30766819D01*
X61530605Y-30771000D01*
X60389395Y-30771000D01*
X60346938Y-30766819D01*
X60312019Y-30756226D01*
X60279837Y-30739024D01*
X60251627Y-30715873D01*
X60228476Y-30687663D01*
X60211274Y-30655481D01*
X60200681Y-30620562D01*
X60196500Y-30578105D01*
X60196500Y-29111895D01*
X60200681Y-29069438D01*
X60211274Y-29034519D01*
X60228476Y-29002337D01*
X60251627Y-28974127D01*
X60279837Y-28950976D01*
X60312019Y-28933774D01*
X60346938Y-28923181D01*
X60389395Y-28919000D01*
X61530605Y-28919000D01*
X61573062Y-28923181D01*
X61573062Y-28923181D01*
G37*
G36*
X58598062Y-28923181D02*
G01*
X58632981Y-28933774D01*
X58665163Y-28950976D01*
X58693373Y-28974127D01*
X58716524Y-29002337D01*
X58733726Y-29034519D01*
X58744319Y-29069438D01*
X58748500Y-29111895D01*
X58748500Y-30578105D01*
X58744319Y-30620562D01*
X58733726Y-30655481D01*
X58716524Y-30687663D01*
X58693373Y-30715873D01*
X58665163Y-30739024D01*
X58632981Y-30756226D01*
X58598062Y-30766819D01*
X58555605Y-30771000D01*
X57414395Y-30771000D01*
X57371938Y-30766819D01*
X57337019Y-30756226D01*
X57304837Y-30739024D01*
X57276627Y-30715873D01*
X57253476Y-30687663D01*
X57236274Y-30655481D01*
X57225681Y-30620562D01*
X57221500Y-30578105D01*
X57221500Y-29111895D01*
X57225681Y-29069438D01*
X57236274Y-29034519D01*
X57253476Y-29002337D01*
X57276627Y-28974127D01*
X57304837Y-28950976D01*
X57337019Y-28933774D01*
X57371938Y-28923181D01*
X57414395Y-28919000D01*
X58555605Y-28919000D01*
X58598062Y-28923181D01*
X58598062Y-28923181D01*
G37*
G36*
X75040442Y-28696518D02*
G01*
X75106627Y-28703037D01*
X75276466Y-28754557D01*
X75432991Y-28838222D01*
X75459140Y-28859682D01*
X75570186Y-28950814D01*
X75653448Y-29052271D01*
X75682778Y-29088009D01*
X75766443Y-29244534D01*
X75817963Y-29414373D01*
X75835359Y-29591000D01*
X75817963Y-29767627D01*
X75766443Y-29937466D01*
X75682778Y-30093991D01*
X75653448Y-30129729D01*
X75570186Y-30231186D01*
X75468729Y-30314448D01*
X75432991Y-30343778D01*
X75432989Y-30343779D01*
X75307229Y-30411000D01*
X75276466Y-30427443D01*
X75106627Y-30478963D01*
X75040443Y-30485481D01*
X74974260Y-30492000D01*
X74885740Y-30492000D01*
X74819557Y-30485481D01*
X74753373Y-30478963D01*
X74583534Y-30427443D01*
X74552772Y-30411000D01*
X74427011Y-30343779D01*
X74427009Y-30343778D01*
X74391271Y-30314448D01*
X74289814Y-30231186D01*
X74206552Y-30129729D01*
X74177222Y-30093991D01*
X74093557Y-29937466D01*
X74042037Y-29767627D01*
X74024641Y-29591000D01*
X74042037Y-29414373D01*
X74093557Y-29244534D01*
X74177222Y-29088009D01*
X74206552Y-29052271D01*
X74289814Y-28950814D01*
X74400860Y-28859682D01*
X74427009Y-28838222D01*
X74583534Y-28754557D01*
X74753373Y-28703037D01*
X74819558Y-28696518D01*
X74885740Y-28690000D01*
X74974260Y-28690000D01*
X75040442Y-28696518D01*
X75040442Y-28696518D01*
G37*
G36*
X20750318Y-28055153D02*
G01*
X20903566Y-28118631D01*
X20968887Y-28145688D01*
X21165593Y-28277122D01*
X21332878Y-28444407D01*
X21464312Y-28641113D01*
X21464313Y-28641115D01*
X21554847Y-28859682D01*
X21601000Y-29091710D01*
X21601000Y-29328290D01*
X21554847Y-29560318D01*
X21468977Y-29767625D01*
X21464312Y-29778887D01*
X21332878Y-29975593D01*
X21165593Y-30142878D01*
X20968887Y-30274312D01*
X20968886Y-30274313D01*
X20968885Y-30274313D01*
X20750318Y-30364847D01*
X20518290Y-30411000D01*
X20281710Y-30411000D01*
X20049682Y-30364847D01*
X19831115Y-30274313D01*
X19831114Y-30274313D01*
X19831113Y-30274312D01*
X19634407Y-30142878D01*
X19467122Y-29975593D01*
X19335688Y-29778887D01*
X19331023Y-29767625D01*
X19245153Y-29560318D01*
X19199000Y-29328290D01*
X19199000Y-29091710D01*
X19245153Y-28859682D01*
X19335687Y-28641115D01*
X19335688Y-28641113D01*
X19467122Y-28444407D01*
X19634407Y-28277122D01*
X19831113Y-28145688D01*
X19896434Y-28118631D01*
X20049682Y-28055153D01*
X20281710Y-28009000D01*
X20518290Y-28009000D01*
X20750318Y-28055153D01*
X20750318Y-28055153D01*
G37*
G36*
X26451000Y-30411000D02*
G01*
X24349000Y-30411000D01*
X24349000Y-28009000D01*
X26451000Y-28009000D01*
X26451000Y-30411000D01*
X26451000Y-30411000D01*
G37*
G36*
X39421000Y-29991000D02*
G01*
X36819000Y-29991000D01*
X36819000Y-28889000D01*
X39421000Y-28889000D01*
X39421000Y-29991000D01*
X39421000Y-29991000D01*
G37*
G36*
X54621000Y-29991000D02*
G01*
X52019000Y-29991000D01*
X52019000Y-28889000D01*
X54621000Y-28889000D01*
X54621000Y-29991000D01*
X54621000Y-29991000D01*
G37*
G36*
X64530562Y-27907181D02*
G01*
X64565481Y-27917774D01*
X64597663Y-27934976D01*
X64625873Y-27958127D01*
X64649024Y-27986337D01*
X64666226Y-28018519D01*
X64676819Y-28053438D01*
X64681000Y-28095895D01*
X64681000Y-29562105D01*
X64676819Y-29604562D01*
X64666226Y-29639481D01*
X64649024Y-29671663D01*
X64625873Y-29699873D01*
X64597663Y-29723024D01*
X64565481Y-29740226D01*
X64530562Y-29750819D01*
X64488105Y-29755000D01*
X63346895Y-29755000D01*
X63304438Y-29750819D01*
X63269519Y-29740226D01*
X63237337Y-29723024D01*
X63209127Y-29699873D01*
X63185976Y-29671663D01*
X63168774Y-29639481D01*
X63158181Y-29604562D01*
X63154000Y-29562105D01*
X63154000Y-28095895D01*
X63158181Y-28053438D01*
X63168774Y-28018519D01*
X63185976Y-27986337D01*
X63209127Y-27958127D01*
X63237337Y-27934976D01*
X63269519Y-27917774D01*
X63304438Y-27907181D01*
X63346895Y-27903000D01*
X64488105Y-27903000D01*
X64530562Y-27907181D01*
X64530562Y-27907181D01*
G37*
G36*
X67505562Y-27907181D02*
G01*
X67540481Y-27917774D01*
X67572663Y-27934976D01*
X67600873Y-27958127D01*
X67624024Y-27986337D01*
X67641226Y-28018519D01*
X67651819Y-28053438D01*
X67656000Y-28095895D01*
X67656000Y-29562105D01*
X67651819Y-29604562D01*
X67641226Y-29639481D01*
X67624024Y-29671663D01*
X67600873Y-29699873D01*
X67572663Y-29723024D01*
X67540481Y-29740226D01*
X67505562Y-29750819D01*
X67463105Y-29755000D01*
X66321895Y-29755000D01*
X66279438Y-29750819D01*
X66244519Y-29740226D01*
X66212337Y-29723024D01*
X66184127Y-29699873D01*
X66160976Y-29671663D01*
X66143774Y-29639481D01*
X66133181Y-29604562D01*
X66129000Y-29562105D01*
X66129000Y-28095895D01*
X66133181Y-28053438D01*
X66143774Y-28018519D01*
X66160976Y-27986337D01*
X66184127Y-27958127D01*
X66212337Y-27934976D01*
X66244519Y-27917774D01*
X66279438Y-27907181D01*
X66321895Y-27903000D01*
X67463105Y-27903000D01*
X67505562Y-27907181D01*
X67505562Y-27907181D01*
G37*
G36*
X39421000Y-27991000D02*
G01*
X36819000Y-27991000D01*
X36819000Y-26889000D01*
X39421000Y-26889000D01*
X39421000Y-27991000D01*
X39421000Y-27991000D01*
G37*
G36*
X54621000Y-27991000D02*
G01*
X52019000Y-27991000D01*
X52019000Y-26889000D01*
X54621000Y-26889000D01*
X54621000Y-27991000D01*
X54621000Y-27991000D01*
G37*
G36*
X75040443Y-26156519D02*
G01*
X75106627Y-26163037D01*
X75276466Y-26214557D01*
X75432991Y-26298222D01*
X75468729Y-26327552D01*
X75570186Y-26410814D01*
X75653448Y-26512271D01*
X75682778Y-26548009D01*
X75766443Y-26704534D01*
X75817963Y-26874373D01*
X75835359Y-27051000D01*
X75817963Y-27227627D01*
X75766443Y-27397466D01*
X75682778Y-27553991D01*
X75653448Y-27589729D01*
X75570186Y-27691186D01*
X75468729Y-27774448D01*
X75432991Y-27803778D01*
X75276466Y-27887443D01*
X75106627Y-27938963D01*
X75040442Y-27945482D01*
X74974260Y-27952000D01*
X74885740Y-27952000D01*
X74819558Y-27945482D01*
X74753373Y-27938963D01*
X74583534Y-27887443D01*
X74427009Y-27803778D01*
X74391271Y-27774448D01*
X74289814Y-27691186D01*
X74206552Y-27589729D01*
X74177222Y-27553991D01*
X74093557Y-27397466D01*
X74042037Y-27227627D01*
X74024641Y-27051000D01*
X74042037Y-26874373D01*
X74093557Y-26704534D01*
X74177222Y-26548009D01*
X74206552Y-26512271D01*
X74289814Y-26410814D01*
X74391271Y-26327552D01*
X74427009Y-26298222D01*
X74583534Y-26214557D01*
X74753373Y-26163037D01*
X74819557Y-26156519D01*
X74885740Y-26150000D01*
X74974260Y-26150000D01*
X75040443Y-26156519D01*
X75040443Y-26156519D01*
G37*
G36*
X54621000Y-25991000D02*
G01*
X52019000Y-25991000D01*
X52019000Y-24889000D01*
X54621000Y-24889000D01*
X54621000Y-25991000D01*
X54621000Y-25991000D01*
G37*
G36*
X39421000Y-25991000D02*
G01*
X36819000Y-25991000D01*
X36819000Y-24889000D01*
X39421000Y-24889000D01*
X39421000Y-25991000D01*
X39421000Y-25991000D01*
G37*
G36*
X61573062Y-23843181D02*
G01*
X61607981Y-23853774D01*
X61640163Y-23870976D01*
X61668373Y-23894127D01*
X61691524Y-23922337D01*
X61708726Y-23954519D01*
X61719319Y-23989438D01*
X61723500Y-24031895D01*
X61723500Y-25498105D01*
X61719319Y-25540562D01*
X61708726Y-25575481D01*
X61691524Y-25607663D01*
X61668373Y-25635873D01*
X61640163Y-25659024D01*
X61607981Y-25676226D01*
X61573062Y-25686819D01*
X61530605Y-25691000D01*
X60389395Y-25691000D01*
X60346938Y-25686819D01*
X60312019Y-25676226D01*
X60279837Y-25659024D01*
X60251627Y-25635873D01*
X60228476Y-25607663D01*
X60211274Y-25575481D01*
X60200681Y-25540562D01*
X60196500Y-25498105D01*
X60196500Y-24031895D01*
X60200681Y-23989438D01*
X60211274Y-23954519D01*
X60228476Y-23922337D01*
X60251627Y-23894127D01*
X60279837Y-23870976D01*
X60312019Y-23853774D01*
X60346938Y-23843181D01*
X60389395Y-23839000D01*
X61530605Y-23839000D01*
X61573062Y-23843181D01*
X61573062Y-23843181D01*
G37*
G36*
X58598062Y-23843181D02*
G01*
X58632981Y-23853774D01*
X58665163Y-23870976D01*
X58693373Y-23894127D01*
X58716524Y-23922337D01*
X58733726Y-23954519D01*
X58744319Y-23989438D01*
X58748500Y-24031895D01*
X58748500Y-25498105D01*
X58744319Y-25540562D01*
X58733726Y-25575481D01*
X58716524Y-25607663D01*
X58693373Y-25635873D01*
X58665163Y-25659024D01*
X58632981Y-25676226D01*
X58598062Y-25686819D01*
X58555605Y-25691000D01*
X57414395Y-25691000D01*
X57371938Y-25686819D01*
X57337019Y-25676226D01*
X57304837Y-25659024D01*
X57276627Y-25635873D01*
X57253476Y-25607663D01*
X57236274Y-25575481D01*
X57225681Y-25540562D01*
X57221500Y-25498105D01*
X57221500Y-24031895D01*
X57225681Y-23989438D01*
X57236274Y-23954519D01*
X57253476Y-23922337D01*
X57276627Y-23894127D01*
X57304837Y-23870976D01*
X57337019Y-23853774D01*
X57371938Y-23843181D01*
X57414395Y-23839000D01*
X58555605Y-23839000D01*
X58598062Y-23843181D01*
X58598062Y-23843181D01*
G37*
G36*
X54621000Y-23991000D02*
G01*
X52019000Y-23991000D01*
X52019000Y-22889000D01*
X54621000Y-22889000D01*
X54621000Y-23991000D01*
X54621000Y-23991000D01*
G37*
G36*
X39421000Y-23991000D02*
G01*
X36819000Y-23991000D01*
X36819000Y-22889000D01*
X39421000Y-22889000D01*
X39421000Y-23991000D01*
X39421000Y-23991000D01*
G37*
G36*
X66306000Y-23761000D02*
G01*
X64504000Y-23761000D01*
X64504000Y-21959000D01*
X66306000Y-21959000D01*
X66306000Y-23761000D01*
X66306000Y-23761000D01*
G37*
G36*
X39421000Y-21991000D02*
G01*
X36819000Y-21991000D01*
X36819000Y-20889000D01*
X39421000Y-20889000D01*
X39421000Y-21991000D01*
X39421000Y-21991000D01*
G37*
G36*
X54621000Y-21991000D02*
G01*
X52019000Y-21991000D01*
X52019000Y-20889000D01*
X54621000Y-20889000D01*
X54621000Y-21991000D01*
X54621000Y-21991000D01*
G37*
G36*
X65515443Y-19425519D02*
G01*
X65581627Y-19432037D01*
X65751466Y-19483557D01*
X65907991Y-19567222D01*
X65943729Y-19596552D01*
X66045186Y-19679814D01*
X66128448Y-19781271D01*
X66157778Y-19817009D01*
X66241443Y-19973534D01*
X66292963Y-20143373D01*
X66310359Y-20320000D01*
X66292963Y-20496627D01*
X66241443Y-20666466D01*
X66157778Y-20822991D01*
X66128448Y-20858729D01*
X66045186Y-20960186D01*
X65943729Y-21043448D01*
X65907991Y-21072778D01*
X65751466Y-21156443D01*
X65581627Y-21207963D01*
X65515442Y-21214482D01*
X65449260Y-21221000D01*
X65360740Y-21221000D01*
X65294558Y-21214482D01*
X65228373Y-21207963D01*
X65058534Y-21156443D01*
X64902009Y-21072778D01*
X64866271Y-21043448D01*
X64764814Y-20960186D01*
X64681552Y-20858729D01*
X64652222Y-20822991D01*
X64568557Y-20666466D01*
X64517037Y-20496627D01*
X64499641Y-20320000D01*
X64517037Y-20143373D01*
X64568557Y-19973534D01*
X64652222Y-19817009D01*
X64681552Y-19781271D01*
X64764814Y-19679814D01*
X64866271Y-19596552D01*
X64902009Y-19567222D01*
X65058534Y-19483557D01*
X65228373Y-19432037D01*
X65294557Y-19425519D01*
X65360740Y-19419000D01*
X65449260Y-19419000D01*
X65515443Y-19425519D01*
X65515443Y-19425519D01*
G37*
G36*
X61536562Y-18636181D02*
G01*
X61571481Y-18646774D01*
X61603663Y-18663976D01*
X61631873Y-18687127D01*
X61655024Y-18715337D01*
X61672226Y-18747519D01*
X61682819Y-18782438D01*
X61687000Y-18824895D01*
X61687000Y-20291105D01*
X61682819Y-20333562D01*
X61672226Y-20368481D01*
X61655024Y-20400663D01*
X61631873Y-20428873D01*
X61603663Y-20452024D01*
X61571481Y-20469226D01*
X61536562Y-20479819D01*
X61494105Y-20484000D01*
X60352895Y-20484000D01*
X60310438Y-20479819D01*
X60275519Y-20469226D01*
X60243337Y-20452024D01*
X60215127Y-20428873D01*
X60191976Y-20400663D01*
X60174774Y-20368481D01*
X60164181Y-20333562D01*
X60160000Y-20291105D01*
X60160000Y-18824895D01*
X60164181Y-18782438D01*
X60174774Y-18747519D01*
X60191976Y-18715337D01*
X60215127Y-18687127D01*
X60243337Y-18663976D01*
X60275519Y-18646774D01*
X60310438Y-18636181D01*
X60352895Y-18632000D01*
X61494105Y-18632000D01*
X61536562Y-18636181D01*
X61536562Y-18636181D01*
G37*
G36*
X58561562Y-18636181D02*
G01*
X58596481Y-18646774D01*
X58628663Y-18663976D01*
X58656873Y-18687127D01*
X58680024Y-18715337D01*
X58697226Y-18747519D01*
X58707819Y-18782438D01*
X58712000Y-18824895D01*
X58712000Y-20291105D01*
X58707819Y-20333562D01*
X58697226Y-20368481D01*
X58680024Y-20400663D01*
X58656873Y-20428873D01*
X58628663Y-20452024D01*
X58596481Y-20469226D01*
X58561562Y-20479819D01*
X58519105Y-20484000D01*
X57377895Y-20484000D01*
X57335438Y-20479819D01*
X57300519Y-20469226D01*
X57268337Y-20452024D01*
X57240127Y-20428873D01*
X57216976Y-20400663D01*
X57199774Y-20368481D01*
X57189181Y-20333562D01*
X57185000Y-20291105D01*
X57185000Y-18824895D01*
X57189181Y-18782438D01*
X57199774Y-18747519D01*
X57216976Y-18715337D01*
X57240127Y-18687127D01*
X57268337Y-18663976D01*
X57300519Y-18646774D01*
X57335438Y-18636181D01*
X57377895Y-18632000D01*
X58519105Y-18632000D01*
X58561562Y-18636181D01*
X58561562Y-18636181D01*
G37*
G36*
X21671000Y-20401000D02*
G01*
X18969000Y-20401000D01*
X18969000Y-17699000D01*
X21671000Y-17699000D01*
X21671000Y-20401000D01*
X21671000Y-20401000D01*
G37*
G36*
X25714072Y-17750918D02*
G01*
X25784283Y-17780000D01*
X25959939Y-17852759D01*
X26071328Y-17927187D01*
X26181211Y-18000609D01*
X26369391Y-18188789D01*
X26517242Y-18410063D01*
X26619082Y-18655928D01*
X26671000Y-18916937D01*
X26671000Y-19183063D01*
X26619082Y-19444072D01*
X26521435Y-19679815D01*
X26517241Y-19689939D01*
X26369390Y-19911212D01*
X26181212Y-20099390D01*
X25959939Y-20247241D01*
X25959938Y-20247242D01*
X25959937Y-20247242D01*
X25714072Y-20349082D01*
X25453063Y-20401000D01*
X25186937Y-20401000D01*
X24925928Y-20349082D01*
X24680063Y-20247242D01*
X24680062Y-20247242D01*
X24680061Y-20247241D01*
X24458788Y-20099390D01*
X24270610Y-19911212D01*
X24122759Y-19689939D01*
X24118566Y-19679815D01*
X24020918Y-19444072D01*
X23969000Y-19183063D01*
X23969000Y-18916937D01*
X24020918Y-18655928D01*
X24122758Y-18410063D01*
X24270609Y-18188789D01*
X24458789Y-18000609D01*
X24568672Y-17927187D01*
X24680061Y-17852759D01*
X24855718Y-17780000D01*
X24925928Y-17750918D01*
X25186937Y-17699000D01*
X25453063Y-17699000D01*
X25714072Y-17750918D01*
X25714072Y-17750918D01*
G37*
G36*
X54621000Y-19991000D02*
G01*
X52019000Y-19991000D01*
X52019000Y-18889000D01*
X54621000Y-18889000D01*
X54621000Y-19991000D01*
X54621000Y-19991000D01*
G37*
G36*
X39421000Y-19991000D02*
G01*
X36819000Y-19991000D01*
X36819000Y-18889000D01*
X39421000Y-18889000D01*
X39421000Y-19991000D01*
X39421000Y-19991000D01*
G37*
G36*
X65515443Y-16885519D02*
G01*
X65581627Y-16892037D01*
X65751466Y-16943557D01*
X65907991Y-17027222D01*
X65943729Y-17056552D01*
X66045186Y-17139814D01*
X66128448Y-17241271D01*
X66157778Y-17277009D01*
X66241443Y-17433534D01*
X66292963Y-17603373D01*
X66310359Y-17780000D01*
X66292963Y-17956627D01*
X66241443Y-18126466D01*
X66157778Y-18282991D01*
X66128448Y-18318729D01*
X66045186Y-18420186D01*
X65943729Y-18503448D01*
X65907991Y-18532778D01*
X65751466Y-18616443D01*
X65581627Y-18667963D01*
X65515443Y-18674481D01*
X65449260Y-18681000D01*
X65360740Y-18681000D01*
X65294557Y-18674481D01*
X65228373Y-18667963D01*
X65058534Y-18616443D01*
X64902009Y-18532778D01*
X64866271Y-18503448D01*
X64764814Y-18420186D01*
X64681552Y-18318729D01*
X64652222Y-18282991D01*
X64568557Y-18126466D01*
X64517037Y-17956627D01*
X64499641Y-17780000D01*
X64517037Y-17603373D01*
X64568557Y-17433534D01*
X64652222Y-17277009D01*
X64681552Y-17241271D01*
X64764814Y-17139814D01*
X64866271Y-17056552D01*
X64902009Y-17027222D01*
X65058534Y-16943557D01*
X65228373Y-16892037D01*
X65294557Y-16885519D01*
X65360740Y-16879000D01*
X65449260Y-16879000D01*
X65515443Y-16885519D01*
X65515443Y-16885519D01*
G37*
G36*
X33130443Y-16885519D02*
G01*
X33196627Y-16892037D01*
X33366466Y-16943557D01*
X33522991Y-17027222D01*
X33558729Y-17056552D01*
X33660186Y-17139814D01*
X33743448Y-17241271D01*
X33772778Y-17277009D01*
X33856443Y-17433534D01*
X33907963Y-17603373D01*
X33925359Y-17780000D01*
X33907963Y-17956627D01*
X33856443Y-18126466D01*
X33772778Y-18282991D01*
X33743448Y-18318729D01*
X33660186Y-18420186D01*
X33558729Y-18503448D01*
X33522991Y-18532778D01*
X33366466Y-18616443D01*
X33196627Y-18667963D01*
X33130443Y-18674481D01*
X33064260Y-18681000D01*
X32975740Y-18681000D01*
X32909557Y-18674481D01*
X32843373Y-18667963D01*
X32673534Y-18616443D01*
X32517009Y-18532778D01*
X32481271Y-18503448D01*
X32379814Y-18420186D01*
X32296552Y-18318729D01*
X32267222Y-18282991D01*
X32183557Y-18126466D01*
X32132037Y-17956627D01*
X32114641Y-17780000D01*
X32132037Y-17603373D01*
X32183557Y-17433534D01*
X32267222Y-17277009D01*
X32296552Y-17241271D01*
X32379814Y-17139814D01*
X32481271Y-17056552D01*
X32517009Y-17027222D01*
X32673534Y-16943557D01*
X32843373Y-16892037D01*
X32909557Y-16885519D01*
X32975740Y-16879000D01*
X33064260Y-16879000D01*
X33130443Y-16885519D01*
X33130443Y-16885519D01*
G37*
G36*
X54621000Y-17991000D02*
G01*
X52019000Y-17991000D01*
X52019000Y-16889000D01*
X54621000Y-16889000D01*
X54621000Y-17991000D01*
X54621000Y-17991000D01*
G37*
G36*
X39421000Y-17991000D02*
G01*
X36819000Y-17991000D01*
X36819000Y-16889000D01*
X39421000Y-16889000D01*
X39421000Y-17991000D01*
X39421000Y-17991000D01*
G37*
G36*
X43271000Y-16891000D02*
G01*
X42169000Y-16891000D01*
X42169000Y-14989000D01*
X43271000Y-14989000D01*
X43271000Y-16891000D01*
X43271000Y-16891000D01*
G37*
G36*
X49271000Y-16891000D02*
G01*
X48169000Y-16891000D01*
X48169000Y-14989000D01*
X49271000Y-14989000D01*
X49271000Y-16891000D01*
X49271000Y-16891000D01*
G37*
G36*
X47271000Y-16891000D02*
G01*
X46169000Y-16891000D01*
X46169000Y-14989000D01*
X47271000Y-14989000D01*
X47271000Y-16891000D01*
X47271000Y-16891000D01*
G37*
G36*
X45271000Y-16891000D02*
G01*
X44169000Y-16891000D01*
X44169000Y-14989000D01*
X45271000Y-14989000D01*
X45271000Y-16891000D01*
X45271000Y-16891000D01*
G37*
G36*
X41271000Y-16891000D02*
G01*
X40169000Y-16891000D01*
X40169000Y-14989000D01*
X41271000Y-14989000D01*
X41271000Y-16891000D01*
X41271000Y-16891000D01*
G37*
G36*
X51271000Y-16891000D02*
G01*
X50169000Y-16891000D01*
X50169000Y-14989000D01*
X51271000Y-14989000D01*
X51271000Y-16891000D01*
X51271000Y-16891000D01*
G37*
G36*
X65515443Y-14345519D02*
G01*
X65581627Y-14352037D01*
X65751466Y-14403557D01*
X65907991Y-14487222D01*
X65943729Y-14516552D01*
X66045186Y-14599814D01*
X66128448Y-14701271D01*
X66157778Y-14737009D01*
X66241443Y-14893534D01*
X66292963Y-15063373D01*
X66310359Y-15240000D01*
X66292963Y-15416627D01*
X66241443Y-15586466D01*
X66157778Y-15742991D01*
X66128448Y-15778729D01*
X66045186Y-15880186D01*
X65943729Y-15963448D01*
X65907991Y-15992778D01*
X65751466Y-16076443D01*
X65581627Y-16127963D01*
X65515443Y-16134481D01*
X65449260Y-16141000D01*
X65360740Y-16141000D01*
X65294557Y-16134481D01*
X65228373Y-16127963D01*
X65058534Y-16076443D01*
X64902009Y-15992778D01*
X64866271Y-15963448D01*
X64764814Y-15880186D01*
X64681552Y-15778729D01*
X64652222Y-15742991D01*
X64568557Y-15586466D01*
X64517037Y-15416627D01*
X64499641Y-15240000D01*
X64517037Y-15063373D01*
X64568557Y-14893534D01*
X64652222Y-14737009D01*
X64681552Y-14701271D01*
X64764814Y-14599814D01*
X64866271Y-14516552D01*
X64902009Y-14487222D01*
X65058534Y-14403557D01*
X65228373Y-14352037D01*
X65294557Y-14345519D01*
X65360740Y-14339000D01*
X65449260Y-14339000D01*
X65515443Y-14345519D01*
X65515443Y-14345519D01*
G37*
G36*
X33921000Y-16141000D02*
G01*
X32119000Y-16141000D01*
X32119000Y-14339000D01*
X33921000Y-14339000D01*
X33921000Y-16141000D01*
X33921000Y-16141000D01*
G37*
G36*
X61500062Y-13556181D02*
G01*
X61534981Y-13566774D01*
X61567163Y-13583976D01*
X61595373Y-13607127D01*
X61618524Y-13635337D01*
X61635726Y-13667519D01*
X61646319Y-13702438D01*
X61650500Y-13744895D01*
X61650500Y-15211105D01*
X61646319Y-15253562D01*
X61635726Y-15288481D01*
X61618524Y-15320663D01*
X61595373Y-15348873D01*
X61567163Y-15372024D01*
X61534981Y-15389226D01*
X61500062Y-15399819D01*
X61457605Y-15404000D01*
X60316395Y-15404000D01*
X60273938Y-15399819D01*
X60239019Y-15389226D01*
X60206837Y-15372024D01*
X60178627Y-15348873D01*
X60155476Y-15320663D01*
X60138274Y-15288481D01*
X60127681Y-15253562D01*
X60123500Y-15211105D01*
X60123500Y-13744895D01*
X60127681Y-13702438D01*
X60138274Y-13667519D01*
X60155476Y-13635337D01*
X60178627Y-13607127D01*
X60206837Y-13583976D01*
X60239019Y-13566774D01*
X60273938Y-13556181D01*
X60316395Y-13552000D01*
X61457605Y-13552000D01*
X61500062Y-13556181D01*
X61500062Y-13556181D01*
G37*
G36*
X58525062Y-13556181D02*
G01*
X58559981Y-13566774D01*
X58592163Y-13583976D01*
X58620373Y-13607127D01*
X58643524Y-13635337D01*
X58660726Y-13667519D01*
X58671319Y-13702438D01*
X58675500Y-13744895D01*
X58675500Y-15211105D01*
X58671319Y-15253562D01*
X58660726Y-15288481D01*
X58643524Y-15320663D01*
X58620373Y-15348873D01*
X58592163Y-15372024D01*
X58559981Y-15389226D01*
X58525062Y-15399819D01*
X58482605Y-15404000D01*
X57341395Y-15404000D01*
X57298938Y-15399819D01*
X57264019Y-15389226D01*
X57231837Y-15372024D01*
X57203627Y-15348873D01*
X57180476Y-15320663D01*
X57163274Y-15288481D01*
X57152681Y-15253562D01*
X57148500Y-15211105D01*
X57148500Y-13744895D01*
X57152681Y-13702438D01*
X57163274Y-13667519D01*
X57180476Y-13635337D01*
X57203627Y-13607127D01*
X57231837Y-13583976D01*
X57264019Y-13566774D01*
X57298938Y-13556181D01*
X57341395Y-13552000D01*
X58482605Y-13552000D01*
X58525062Y-13556181D01*
X58525062Y-13556181D01*
G37*
M02*
