G04 #@! TF.GenerationSoftware,KiCad,Pcbnew,(5.1.2)-1*
G04 #@! TF.CreationDate,2019-12-22T13:40:19+06:00*
G04 #@! TF.ProjectId,esp12e-simple-board,65737031-3265-42d7-9369-6d706c652d62,rev?*
G04 #@! TF.SameCoordinates,Original*
G04 #@! TF.FileFunction,Legend,Top*
G04 #@! TF.FilePolarity,Positive*
%FSLAX46Y46*%
G04 Gerber Fmt 4.6, Leading zero omitted, Abs format (unit mm)*
G04 Created by KiCad (PCBNEW (5.1.2)-1) date 2019-12-22 13:40:19*
%MOMM*%
%LPD*%
G04 APERTURE LIST*
%ADD10C,0.400000*%
%ADD11C,0.150000*%
%ADD12C,0.120000*%
G04 APERTURE END LIST*
D10*
X15319333Y-22685190D02*
X15319333Y-21732809D01*
X15890761Y-22875666D02*
X13890761Y-22209000D01*
X15890761Y-21542333D01*
X15700285Y-19732809D02*
X15795523Y-19828047D01*
X15890761Y-20113761D01*
X15890761Y-20304238D01*
X15795523Y-20589952D01*
X15605047Y-20780428D01*
X15414571Y-20875666D01*
X15033619Y-20970904D01*
X14747904Y-20970904D01*
X14366952Y-20875666D01*
X14176476Y-20780428D01*
X13986000Y-20589952D01*
X13890761Y-20304238D01*
X13890761Y-20113761D01*
X13986000Y-19828047D01*
X14081238Y-19732809D01*
D11*
X66889380Y-57356190D02*
X66889380Y-56737142D01*
X67270333Y-57070476D01*
X67270333Y-56927619D01*
X67317952Y-56832380D01*
X67365571Y-56784761D01*
X67460809Y-56737142D01*
X67698904Y-56737142D01*
X67794142Y-56784761D01*
X67841761Y-56832380D01*
X67889380Y-56927619D01*
X67889380Y-57213333D01*
X67841761Y-57308571D01*
X67794142Y-57356190D01*
X67794142Y-56308571D02*
X67841761Y-56260952D01*
X67889380Y-56308571D01*
X67841761Y-56356190D01*
X67794142Y-56308571D01*
X67889380Y-56308571D01*
X66889380Y-55927619D02*
X66889380Y-55308571D01*
X67270333Y-55641904D01*
X67270333Y-55499047D01*
X67317952Y-55403809D01*
X67365571Y-55356190D01*
X67460809Y-55308571D01*
X67698904Y-55308571D01*
X67794142Y-55356190D01*
X67841761Y-55403809D01*
X67889380Y-55499047D01*
X67889380Y-55784761D01*
X67841761Y-55880000D01*
X67794142Y-55927619D01*
X66889380Y-55022857D02*
X67889380Y-54689523D01*
X66889380Y-54356190D01*
X64682666Y-57118095D02*
X64682666Y-56641904D01*
X64968380Y-57213333D02*
X63968380Y-56880000D01*
X64968380Y-56546666D01*
X64968380Y-56213333D02*
X63968380Y-56213333D01*
X63968380Y-55975238D01*
X64016000Y-55832380D01*
X64111238Y-55737142D01*
X64206476Y-55689523D01*
X64396952Y-55641904D01*
X64539809Y-55641904D01*
X64730285Y-55689523D01*
X64825523Y-55737142D01*
X64920761Y-55832380D01*
X64968380Y-55975238D01*
X64968380Y-56213333D01*
X64873142Y-54641904D02*
X64920761Y-54689523D01*
X64968380Y-54832380D01*
X64968380Y-54927619D01*
X64920761Y-55070476D01*
X64825523Y-55165714D01*
X64730285Y-55213333D01*
X64539809Y-55260952D01*
X64396952Y-55260952D01*
X64206476Y-55213333D01*
X64111238Y-55165714D01*
X64016000Y-55070476D01*
X63968380Y-54927619D01*
X63968380Y-54832380D01*
X64016000Y-54689523D01*
X64063619Y-54641904D01*
X62555380Y-57007000D02*
X61555380Y-57007000D01*
X61555380Y-56340333D02*
X61555380Y-56149857D01*
X61603000Y-56054619D01*
X61698238Y-55959380D01*
X61888714Y-55911761D01*
X62222047Y-55911761D01*
X62412523Y-55959380D01*
X62507761Y-56054619D01*
X62555380Y-56149857D01*
X62555380Y-56340333D01*
X62507761Y-56435571D01*
X62412523Y-56530809D01*
X62222047Y-56578428D01*
X61888714Y-56578428D01*
X61698238Y-56530809D01*
X61603000Y-56435571D01*
X61555380Y-56340333D01*
X61555380Y-55578428D02*
X61555380Y-54959380D01*
X61936333Y-55292714D01*
X61936333Y-55149857D01*
X61983952Y-55054619D01*
X62031571Y-55007000D01*
X62126809Y-54959380D01*
X62364904Y-54959380D01*
X62460142Y-55007000D01*
X62507761Y-55054619D01*
X62555380Y-55149857D01*
X62555380Y-55435571D01*
X62507761Y-55530809D01*
X62460142Y-55578428D01*
X60015380Y-57007000D02*
X59015380Y-57007000D01*
X59015380Y-56340333D02*
X59015380Y-56149857D01*
X59063000Y-56054619D01*
X59158238Y-55959380D01*
X59348714Y-55911761D01*
X59682047Y-55911761D01*
X59872523Y-55959380D01*
X59967761Y-56054619D01*
X60015380Y-56149857D01*
X60015380Y-56340333D01*
X59967761Y-56435571D01*
X59872523Y-56530809D01*
X59682047Y-56578428D01*
X59348714Y-56578428D01*
X59158238Y-56530809D01*
X59063000Y-56435571D01*
X59015380Y-56340333D01*
X59348714Y-55054619D02*
X60015380Y-55054619D01*
X58967761Y-55292714D02*
X59682047Y-55530809D01*
X59682047Y-54911761D01*
X56650000Y-56641904D02*
X56602380Y-56737142D01*
X56602380Y-56880000D01*
X56650000Y-57022857D01*
X56745238Y-57118095D01*
X56840476Y-57165714D01*
X57030952Y-57213333D01*
X57173809Y-57213333D01*
X57364285Y-57165714D01*
X57459523Y-57118095D01*
X57554761Y-57022857D01*
X57602380Y-56880000D01*
X57602380Y-56784761D01*
X57554761Y-56641904D01*
X57507142Y-56594285D01*
X57173809Y-56594285D01*
X57173809Y-56784761D01*
X57602380Y-56165714D02*
X56602380Y-56165714D01*
X57602380Y-55594285D01*
X56602380Y-55594285D01*
X57602380Y-55118095D02*
X56602380Y-55118095D01*
X56602380Y-54880000D01*
X56650000Y-54737142D01*
X56745238Y-54641904D01*
X56840476Y-54594285D01*
X57030952Y-54546666D01*
X57173809Y-54546666D01*
X57364285Y-54594285D01*
X57459523Y-54641904D01*
X57554761Y-54737142D01*
X57602380Y-54880000D01*
X57602380Y-55118095D01*
X47887000Y-56641904D02*
X47839380Y-56737142D01*
X47839380Y-56880000D01*
X47887000Y-57022857D01*
X47982238Y-57118095D01*
X48077476Y-57165714D01*
X48267952Y-57213333D01*
X48410809Y-57213333D01*
X48601285Y-57165714D01*
X48696523Y-57118095D01*
X48791761Y-57022857D01*
X48839380Y-56880000D01*
X48839380Y-56784761D01*
X48791761Y-56641904D01*
X48744142Y-56594285D01*
X48410809Y-56594285D01*
X48410809Y-56784761D01*
X48839380Y-56165714D02*
X47839380Y-56165714D01*
X48839380Y-55594285D01*
X47839380Y-55594285D01*
X48839380Y-55118095D02*
X47839380Y-55118095D01*
X47839380Y-54880000D01*
X47887000Y-54737142D01*
X47982238Y-54641904D01*
X48077476Y-54594285D01*
X48267952Y-54546666D01*
X48410809Y-54546666D01*
X48601285Y-54594285D01*
X48696523Y-54641904D01*
X48791761Y-54737142D01*
X48839380Y-54880000D01*
X48839380Y-55118095D01*
X46299380Y-57197428D02*
X45299380Y-57197428D01*
X46013666Y-56864095D01*
X45299380Y-56530761D01*
X46299380Y-56530761D01*
X46299380Y-56054571D02*
X45299380Y-56054571D01*
X46251761Y-55626000D02*
X46299380Y-55483142D01*
X46299380Y-55245047D01*
X46251761Y-55149809D01*
X46204142Y-55102190D01*
X46108904Y-55054571D01*
X46013666Y-55054571D01*
X45918428Y-55102190D01*
X45870809Y-55149809D01*
X45823190Y-55245047D01*
X45775571Y-55435523D01*
X45727952Y-55530761D01*
X45680333Y-55578380D01*
X45585095Y-55626000D01*
X45489857Y-55626000D01*
X45394619Y-55578380D01*
X45347000Y-55530761D01*
X45299380Y-55435523D01*
X45299380Y-55197428D01*
X45347000Y-55054571D01*
X45299380Y-54435523D02*
X45299380Y-54245047D01*
X45347000Y-54149809D01*
X45442238Y-54054571D01*
X45632714Y-54006952D01*
X45966047Y-54006952D01*
X46156523Y-54054571D01*
X46251761Y-54149809D01*
X46299380Y-54245047D01*
X46299380Y-54435523D01*
X46251761Y-54530761D01*
X46156523Y-54626000D01*
X45966047Y-54673619D01*
X45632714Y-54673619D01*
X45442238Y-54626000D01*
X45347000Y-54530761D01*
X45299380Y-54435523D01*
X43632380Y-57197428D02*
X42632380Y-57197428D01*
X43346666Y-56864095D01*
X42632380Y-56530761D01*
X43632380Y-56530761D01*
X42632380Y-55864095D02*
X42632380Y-55673619D01*
X42680000Y-55578380D01*
X42775238Y-55483142D01*
X42965714Y-55435523D01*
X43299047Y-55435523D01*
X43489523Y-55483142D01*
X43584761Y-55578380D01*
X43632380Y-55673619D01*
X43632380Y-55864095D01*
X43584761Y-55959333D01*
X43489523Y-56054571D01*
X43299047Y-56102190D01*
X42965714Y-56102190D01*
X42775238Y-56054571D01*
X42680000Y-55959333D01*
X42632380Y-55864095D01*
X43584761Y-55054571D02*
X43632380Y-54911714D01*
X43632380Y-54673619D01*
X43584761Y-54578380D01*
X43537142Y-54530761D01*
X43441904Y-54483142D01*
X43346666Y-54483142D01*
X43251428Y-54530761D01*
X43203809Y-54578380D01*
X43156190Y-54673619D01*
X43108571Y-54864095D01*
X43060952Y-54959333D01*
X43013333Y-55006952D01*
X42918095Y-55054571D01*
X42822857Y-55054571D01*
X42727619Y-55006952D01*
X42680000Y-54959333D01*
X42632380Y-54864095D01*
X42632380Y-54626000D01*
X42680000Y-54483142D01*
X43632380Y-54054571D02*
X42632380Y-54054571D01*
X40743142Y-56475238D02*
X40790761Y-56522857D01*
X40838380Y-56665714D01*
X40838380Y-56760952D01*
X40790761Y-56903809D01*
X40695523Y-56999047D01*
X40600285Y-57046666D01*
X40409809Y-57094285D01*
X40266952Y-57094285D01*
X40076476Y-57046666D01*
X39981238Y-56999047D01*
X39886000Y-56903809D01*
X39838380Y-56760952D01*
X39838380Y-56665714D01*
X39886000Y-56522857D01*
X39933619Y-56475238D01*
X40838380Y-55570476D02*
X40838380Y-56046666D01*
X39838380Y-56046666D01*
X40838380Y-55237142D02*
X39838380Y-55237142D01*
X40838380Y-54665714D02*
X40266952Y-55094285D01*
X39838380Y-54665714D02*
X40409809Y-55237142D01*
X37298380Y-57229190D02*
X37298380Y-56610142D01*
X37679333Y-56943476D01*
X37679333Y-56800619D01*
X37726952Y-56705380D01*
X37774571Y-56657761D01*
X37869809Y-56610142D01*
X38107904Y-56610142D01*
X38203142Y-56657761D01*
X38250761Y-56705380D01*
X38298380Y-56800619D01*
X38298380Y-57086333D01*
X38250761Y-57181571D01*
X38203142Y-57229190D01*
X38203142Y-56181571D02*
X38250761Y-56133952D01*
X38298380Y-56181571D01*
X38250761Y-56229190D01*
X38203142Y-56181571D01*
X38298380Y-56181571D01*
X37298380Y-55800619D02*
X37298380Y-55181571D01*
X37679333Y-55514904D01*
X37679333Y-55372047D01*
X37726952Y-55276809D01*
X37774571Y-55229190D01*
X37869809Y-55181571D01*
X38107904Y-55181571D01*
X38203142Y-55229190D01*
X38250761Y-55276809D01*
X38298380Y-55372047D01*
X38298380Y-55657761D01*
X38250761Y-55753000D01*
X38203142Y-55800619D01*
X37298380Y-54895857D02*
X38298380Y-54562523D01*
X37298380Y-54229190D01*
X32258095Y-20201000D02*
X32162857Y-20153380D01*
X32020000Y-20153380D01*
X31877142Y-20201000D01*
X31781904Y-20296238D01*
X31734285Y-20391476D01*
X31686666Y-20581952D01*
X31686666Y-20724809D01*
X31734285Y-20915285D01*
X31781904Y-21010523D01*
X31877142Y-21105761D01*
X32020000Y-21153380D01*
X32115238Y-21153380D01*
X32258095Y-21105761D01*
X32305714Y-21058142D01*
X32305714Y-20724809D01*
X32115238Y-20724809D01*
X32734285Y-21153380D02*
X32734285Y-20153380D01*
X33305714Y-21153380D01*
X33305714Y-20153380D01*
X33781904Y-21153380D02*
X33781904Y-20153380D01*
X34020000Y-20153380D01*
X34162857Y-20201000D01*
X34258095Y-20296238D01*
X34305714Y-20391476D01*
X34353333Y-20581952D01*
X34353333Y-20724809D01*
X34305714Y-20915285D01*
X34258095Y-21010523D01*
X34162857Y-21105761D01*
X34020000Y-21153380D01*
X33781904Y-21153380D01*
X70612095Y-34298000D02*
X70516857Y-34250380D01*
X70374000Y-34250380D01*
X70231142Y-34298000D01*
X70135904Y-34393238D01*
X70088285Y-34488476D01*
X70040666Y-34678952D01*
X70040666Y-34821809D01*
X70088285Y-35012285D01*
X70135904Y-35107523D01*
X70231142Y-35202761D01*
X70374000Y-35250380D01*
X70469238Y-35250380D01*
X70612095Y-35202761D01*
X70659714Y-35155142D01*
X70659714Y-34821809D01*
X70469238Y-34821809D01*
X71088285Y-35250380D02*
X71088285Y-34250380D01*
X71659714Y-35250380D01*
X71659714Y-34250380D01*
X72135904Y-35250380D02*
X72135904Y-34250380D01*
X72374000Y-34250380D01*
X72516857Y-34298000D01*
X72612095Y-34393238D01*
X72659714Y-34488476D01*
X72707333Y-34678952D01*
X72707333Y-34821809D01*
X72659714Y-35012285D01*
X72612095Y-35107523D01*
X72516857Y-35202761D01*
X72374000Y-35250380D01*
X72135904Y-35250380D01*
X70953333Y-32710380D02*
X70620000Y-32234190D01*
X70381904Y-32710380D02*
X70381904Y-31710380D01*
X70762857Y-31710380D01*
X70858095Y-31758000D01*
X70905714Y-31805619D01*
X70953333Y-31900857D01*
X70953333Y-32043714D01*
X70905714Y-32138952D01*
X70858095Y-32186571D01*
X70762857Y-32234190D01*
X70381904Y-32234190D01*
X71286666Y-31710380D02*
X71953333Y-32710380D01*
X71953333Y-31710380D02*
X71286666Y-32710380D01*
X70231095Y-29170380D02*
X70802523Y-29170380D01*
X70516809Y-30170380D02*
X70516809Y-29170380D01*
X71040619Y-29170380D02*
X71707285Y-30170380D01*
X71707285Y-29170380D02*
X71040619Y-30170380D01*
X70929523Y-26503380D02*
X70453333Y-26503380D01*
X70405714Y-26979571D01*
X70453333Y-26931952D01*
X70548571Y-26884333D01*
X70786666Y-26884333D01*
X70881904Y-26931952D01*
X70929523Y-26979571D01*
X70977142Y-27074809D01*
X70977142Y-27312904D01*
X70929523Y-27408142D01*
X70881904Y-27455761D01*
X70786666Y-27503380D01*
X70548571Y-27503380D01*
X70453333Y-27455761D01*
X70405714Y-27408142D01*
X71262857Y-26503380D02*
X71596190Y-27503380D01*
X71929523Y-26503380D01*
X67357809Y-22439380D02*
X67976857Y-22439380D01*
X67643523Y-22820333D01*
X67786380Y-22820333D01*
X67881619Y-22867952D01*
X67929238Y-22915571D01*
X67976857Y-23010809D01*
X67976857Y-23248904D01*
X67929238Y-23344142D01*
X67881619Y-23391761D01*
X67786380Y-23439380D01*
X67500666Y-23439380D01*
X67405428Y-23391761D01*
X67357809Y-23344142D01*
X68405428Y-23344142D02*
X68453047Y-23391761D01*
X68405428Y-23439380D01*
X68357809Y-23391761D01*
X68405428Y-23344142D01*
X68405428Y-23439380D01*
X68786380Y-22439380D02*
X69405428Y-22439380D01*
X69072095Y-22820333D01*
X69214952Y-22820333D01*
X69310190Y-22867952D01*
X69357809Y-22915571D01*
X69405428Y-23010809D01*
X69405428Y-23248904D01*
X69357809Y-23344142D01*
X69310190Y-23391761D01*
X69214952Y-23439380D01*
X68929238Y-23439380D01*
X68834000Y-23391761D01*
X68786380Y-23344142D01*
X69691142Y-22439380D02*
X70024476Y-23439380D01*
X70357809Y-22439380D01*
X67429380Y-20375571D02*
X67762714Y-20375571D01*
X67905571Y-20899380D02*
X67429380Y-20899380D01*
X67429380Y-19899380D01*
X67905571Y-19899380D01*
X68286523Y-20851761D02*
X68429380Y-20899380D01*
X68667476Y-20899380D01*
X68762714Y-20851761D01*
X68810333Y-20804142D01*
X68857952Y-20708904D01*
X68857952Y-20613666D01*
X68810333Y-20518428D01*
X68762714Y-20470809D01*
X68667476Y-20423190D01*
X68477000Y-20375571D01*
X68381761Y-20327952D01*
X68334142Y-20280333D01*
X68286523Y-20185095D01*
X68286523Y-20089857D01*
X68334142Y-19994619D01*
X68381761Y-19947000D01*
X68477000Y-19899380D01*
X68715095Y-19899380D01*
X68857952Y-19947000D01*
X69286523Y-20899380D02*
X69286523Y-19899380D01*
X69667476Y-19899380D01*
X69762714Y-19947000D01*
X69810333Y-19994619D01*
X69857952Y-20089857D01*
X69857952Y-20232714D01*
X69810333Y-20327952D01*
X69762714Y-20375571D01*
X69667476Y-20423190D01*
X69286523Y-20423190D01*
X70048428Y-20994619D02*
X70810333Y-20994619D01*
X71619857Y-20899380D02*
X71286523Y-20423190D01*
X71048428Y-20899380D02*
X71048428Y-19899380D01*
X71429380Y-19899380D01*
X71524619Y-19947000D01*
X71572238Y-19994619D01*
X71619857Y-20089857D01*
X71619857Y-20232714D01*
X71572238Y-20327952D01*
X71524619Y-20375571D01*
X71429380Y-20423190D01*
X71048428Y-20423190D01*
X71953190Y-19899380D02*
X72619857Y-20899380D01*
X72619857Y-19899380D02*
X71953190Y-20899380D01*
X67421428Y-17708571D02*
X67754761Y-17708571D01*
X67897619Y-18232380D02*
X67421428Y-18232380D01*
X67421428Y-17232380D01*
X67897619Y-17232380D01*
X68278571Y-18184761D02*
X68421428Y-18232380D01*
X68659523Y-18232380D01*
X68754761Y-18184761D01*
X68802380Y-18137142D01*
X68850000Y-18041904D01*
X68850000Y-17946666D01*
X68802380Y-17851428D01*
X68754761Y-17803809D01*
X68659523Y-17756190D01*
X68469047Y-17708571D01*
X68373809Y-17660952D01*
X68326190Y-17613333D01*
X68278571Y-17518095D01*
X68278571Y-17422857D01*
X68326190Y-17327619D01*
X68373809Y-17280000D01*
X68469047Y-17232380D01*
X68707142Y-17232380D01*
X68850000Y-17280000D01*
X69278571Y-18232380D02*
X69278571Y-17232380D01*
X69659523Y-17232380D01*
X69754761Y-17280000D01*
X69802380Y-17327619D01*
X69850000Y-17422857D01*
X69850000Y-17565714D01*
X69802380Y-17660952D01*
X69754761Y-17708571D01*
X69659523Y-17756190D01*
X69278571Y-17756190D01*
X70040476Y-18327619D02*
X70802380Y-18327619D01*
X70897619Y-17232380D02*
X71469047Y-17232380D01*
X71183333Y-18232380D02*
X71183333Y-17232380D01*
X71707142Y-17232380D02*
X72373809Y-18232380D01*
X72373809Y-17232380D02*
X71707142Y-18232380D01*
X67945095Y-14740000D02*
X67849857Y-14692380D01*
X67707000Y-14692380D01*
X67564142Y-14740000D01*
X67468904Y-14835238D01*
X67421285Y-14930476D01*
X67373666Y-15120952D01*
X67373666Y-15263809D01*
X67421285Y-15454285D01*
X67468904Y-15549523D01*
X67564142Y-15644761D01*
X67707000Y-15692380D01*
X67802238Y-15692380D01*
X67945095Y-15644761D01*
X67992714Y-15597142D01*
X67992714Y-15263809D01*
X67802238Y-15263809D01*
X68421285Y-15692380D02*
X68421285Y-14692380D01*
X68992714Y-15692380D01*
X68992714Y-14692380D01*
X69468904Y-15692380D02*
X69468904Y-14692380D01*
X69707000Y-14692380D01*
X69849857Y-14740000D01*
X69945095Y-14835238D01*
X69992714Y-14930476D01*
X70040333Y-15120952D01*
X70040333Y-15263809D01*
X69992714Y-15454285D01*
X69945095Y-15549523D01*
X69849857Y-15644761D01*
X69707000Y-15692380D01*
X69468904Y-15692380D01*
D12*
X73012936Y-53399000D02*
X74217064Y-53399000D01*
X73012936Y-51579000D02*
X74217064Y-51579000D01*
X71200000Y-50284000D02*
X75260000Y-50284000D01*
X71200000Y-48014000D02*
X71200000Y-50284000D01*
X75260000Y-48014000D02*
X71200000Y-48014000D01*
X53840000Y-32440000D02*
X54450000Y-32440000D01*
X53840000Y-32440000D02*
X53840000Y-40060000D01*
X53840000Y-15820000D02*
X53840000Y-16440000D01*
X51720000Y-15820000D02*
X53840000Y-15820000D01*
X37600000Y-15820000D02*
X39720000Y-15820000D01*
X37600000Y-16440000D02*
X37600000Y-15820000D01*
X37600000Y-40060000D02*
X37600000Y-32440000D01*
X53840000Y-40060000D02*
X37600000Y-40060000D01*
X37700000Y-45260000D02*
X37700000Y-46760000D01*
X38950000Y-49260000D02*
X43450000Y-49260000D01*
X44700000Y-46760000D02*
X44700000Y-45260000D01*
X43450000Y-42760000D02*
X38950000Y-42760000D01*
X50400000Y-45260000D02*
X50400000Y-46760000D01*
X51650000Y-49260000D02*
X56150000Y-49260000D01*
X57400000Y-46760000D02*
X57400000Y-45260000D01*
X56150000Y-42760000D02*
X51650000Y-42760000D01*
X66007064Y-43159000D02*
X64802936Y-43159000D01*
X66007064Y-44979000D02*
X64802936Y-44979000D01*
X64802936Y-39899000D02*
X66007064Y-39899000D01*
X64802936Y-38079000D02*
X66007064Y-38079000D01*
X66007064Y-32999000D02*
X64802936Y-32999000D01*
X66007064Y-34819000D02*
X64802936Y-34819000D01*
X64802936Y-29739000D02*
X66007064Y-29739000D01*
X64802936Y-27919000D02*
X66007064Y-27919000D01*
X59087936Y-40915000D02*
X60292064Y-40915000D01*
X59087936Y-39095000D02*
X60292064Y-39095000D01*
X59087936Y-35835000D02*
X60292064Y-35835000D01*
X59087936Y-34015000D02*
X60292064Y-34015000D01*
X58870436Y-30755000D02*
X60074564Y-30755000D01*
X58870436Y-28935000D02*
X60074564Y-28935000D01*
X58870436Y-25675000D02*
X60074564Y-25675000D01*
X58870436Y-23855000D02*
X60074564Y-23855000D01*
X58833936Y-18648000D02*
X60038064Y-18648000D01*
X58833936Y-20468000D02*
X60038064Y-20468000D01*
X64010000Y-48712000D02*
X65470000Y-48712000D01*
X64010000Y-51872000D02*
X67170000Y-51872000D01*
X64010000Y-51872000D02*
X64010000Y-50942000D01*
X64010000Y-48712000D02*
X64010000Y-49642000D01*
X73404000Y-43998000D02*
X71944000Y-43998000D01*
X73404000Y-40838000D02*
X70244000Y-40838000D01*
X73404000Y-40838000D02*
X73404000Y-41768000D01*
X73404000Y-43998000D02*
X73404000Y-43068000D01*
X26400000Y-26420000D02*
X24390000Y-26420000D01*
X33000000Y-61010000D02*
X33000000Y-26810000D01*
X12800000Y-61010000D02*
X33000000Y-61010000D01*
X12800000Y-26810000D02*
X12800000Y-61010000D01*
X33000000Y-26810000D02*
X12800000Y-26810000D01*
X55820000Y-61020000D02*
X55820000Y-59690000D01*
X57150000Y-61020000D02*
X55820000Y-61020000D01*
X58420000Y-61020000D02*
X58420000Y-58360000D01*
X58420000Y-58360000D02*
X68640000Y-58360000D01*
X58420000Y-61020000D02*
X68640000Y-61020000D01*
X68640000Y-61020000D02*
X68640000Y-58360000D01*
X49590000Y-58360000D02*
X49590000Y-59690000D01*
X48260000Y-58360000D02*
X49590000Y-58360000D01*
X46990000Y-58360000D02*
X46990000Y-61020000D01*
X46990000Y-61020000D02*
X36770000Y-61020000D01*
X46990000Y-58360000D02*
X36770000Y-58360000D01*
X36770000Y-58360000D02*
X36770000Y-61020000D01*
X76260000Y-36001000D02*
X74930000Y-36001000D01*
X76260000Y-34671000D02*
X76260000Y-36001000D01*
X76260000Y-33401000D02*
X73600000Y-33401000D01*
X73600000Y-33401000D02*
X73600000Y-25721000D01*
X76260000Y-33401000D02*
X76260000Y-25721000D01*
X76260000Y-25721000D02*
X73600000Y-25721000D01*
X66735000Y-24190000D02*
X65405000Y-24190000D01*
X66735000Y-22860000D02*
X66735000Y-24190000D01*
X66735000Y-21590000D02*
X64075000Y-21590000D01*
X64075000Y-21590000D02*
X64075000Y-13910000D01*
X66735000Y-21590000D02*
X66735000Y-13910000D01*
X66735000Y-13910000D02*
X64075000Y-13910000D01*
X31690000Y-13910000D02*
X33020000Y-13910000D01*
X31690000Y-15240000D02*
X31690000Y-13910000D01*
X31690000Y-16510000D02*
X34350000Y-16510000D01*
X34350000Y-16510000D02*
X34350000Y-19110000D01*
X31690000Y-16510000D02*
X31690000Y-19110000D01*
X31690000Y-19110000D02*
X34350000Y-19110000D01*
X17520000Y-23950000D02*
X18020000Y-23950000D01*
X17520000Y-23210000D02*
X17520000Y-23950000D01*
X24093000Y-20073000D02*
X24046000Y-20119000D01*
X26390000Y-17775000D02*
X26355000Y-17811000D01*
X24286000Y-20289000D02*
X24251000Y-20324000D01*
X26595000Y-17981000D02*
X26548000Y-18027000D01*
X27880000Y-13789000D02*
X27880000Y-23710000D01*
X17760000Y-13789000D02*
X17760000Y-23710000D01*
X17760000Y-23710000D02*
X27880000Y-23710000D01*
X17760000Y-13789000D02*
X27880000Y-13789000D01*
X17760000Y-16749000D02*
X27880000Y-16749000D01*
X17760000Y-21650000D02*
X27880000Y-21650000D01*
X17760000Y-23150000D02*
X27880000Y-23150000D01*
X27000000Y-19050000D02*
G75*
G03X27000000Y-19050000I-1680000J0D01*
G01*
X20348805Y-20730253D02*
G75*
G02X19636000Y-20585000I-28805J1680253D01*
G01*
X18784574Y-19733042D02*
G75*
G02X18785000Y-18366000I1535426J683042D01*
G01*
X19636958Y-17514574D02*
G75*
G02X21004000Y-17515000I683042J-1535426D01*
G01*
X21855426Y-18366958D02*
G75*
G02X21855000Y-19734000I-1535426J-683042D01*
G01*
X21003318Y-20584756D02*
G75*
G02X20320000Y-20730000I-683318J1534756D01*
G01*
X60001564Y-13568000D02*
X58797436Y-13568000D01*
X60001564Y-15388000D02*
X58797436Y-15388000D01*
D11*
X73017142Y-55062380D02*
X72683809Y-54586190D01*
X72445714Y-55062380D02*
X72445714Y-54062380D01*
X72826666Y-54062380D01*
X72921904Y-54110000D01*
X72969523Y-54157619D01*
X73017142Y-54252857D01*
X73017142Y-54395714D01*
X72969523Y-54490952D01*
X72921904Y-54538571D01*
X72826666Y-54586190D01*
X72445714Y-54586190D01*
X73969523Y-55062380D02*
X73398095Y-55062380D01*
X73683809Y-55062380D02*
X73683809Y-54062380D01*
X73588571Y-54205238D01*
X73493333Y-54300476D01*
X73398095Y-54348095D01*
X74588571Y-54062380D02*
X74683809Y-54062380D01*
X74779047Y-54110000D01*
X74826666Y-54157619D01*
X74874285Y-54252857D01*
X74921904Y-54443333D01*
X74921904Y-54681428D01*
X74874285Y-54871904D01*
X74826666Y-54967142D01*
X74779047Y-55014761D01*
X74683809Y-55062380D01*
X74588571Y-55062380D01*
X74493333Y-55014761D01*
X74445714Y-54967142D01*
X74398095Y-54871904D01*
X74350476Y-54681428D01*
X74350476Y-54443333D01*
X74398095Y-54252857D01*
X74445714Y-54157619D01*
X74493333Y-54110000D01*
X74588571Y-54062380D01*
X72921904Y-47781380D02*
X72921904Y-46781380D01*
X73160000Y-46781380D01*
X73302857Y-46829000D01*
X73398095Y-46924238D01*
X73445714Y-47019476D01*
X73493333Y-47209952D01*
X73493333Y-47352809D01*
X73445714Y-47543285D01*
X73398095Y-47638523D01*
X73302857Y-47733761D01*
X73160000Y-47781380D01*
X72921904Y-47781380D01*
X74445714Y-47781380D02*
X73874285Y-47781380D01*
X74160000Y-47781380D02*
X74160000Y-46781380D01*
X74064761Y-46924238D01*
X73969523Y-47019476D01*
X73874285Y-47067095D01*
X70326714Y-51252380D02*
X70326714Y-50252380D01*
X70707666Y-50252380D01*
X70802904Y-50300000D01*
X70850523Y-50347619D01*
X70898142Y-50442857D01*
X70898142Y-50585714D01*
X70850523Y-50680952D01*
X70802904Y-50728571D01*
X70707666Y-50776190D01*
X70326714Y-50776190D01*
X71469571Y-51252380D02*
X71374333Y-51204761D01*
X71326714Y-51157142D01*
X71279095Y-51061904D01*
X71279095Y-50776190D01*
X71326714Y-50680952D01*
X71374333Y-50633333D01*
X71469571Y-50585714D01*
X71612428Y-50585714D01*
X71707666Y-50633333D01*
X71755285Y-50680952D01*
X71802904Y-50776190D01*
X71802904Y-51061904D01*
X71755285Y-51157142D01*
X71707666Y-51204761D01*
X71612428Y-51252380D01*
X71469571Y-51252380D01*
X72136238Y-50585714D02*
X72326714Y-51252380D01*
X72517190Y-50776190D01*
X72707666Y-51252380D01*
X72898142Y-50585714D01*
X73660047Y-51204761D02*
X73564809Y-51252380D01*
X73374333Y-51252380D01*
X73279095Y-51204761D01*
X73231476Y-51109523D01*
X73231476Y-50728571D01*
X73279095Y-50633333D01*
X73374333Y-50585714D01*
X73564809Y-50585714D01*
X73660047Y-50633333D01*
X73707666Y-50728571D01*
X73707666Y-50823809D01*
X73231476Y-50919047D01*
X74136238Y-51252380D02*
X74136238Y-50585714D01*
X74136238Y-50776190D02*
X74183857Y-50680952D01*
X74231476Y-50633333D01*
X74326714Y-50585714D01*
X74421952Y-50585714D01*
X75993380Y-51252380D02*
X75517190Y-51252380D01*
X75517190Y-50252380D01*
X76326714Y-50728571D02*
X76660047Y-50728571D01*
X76802904Y-51252380D02*
X76326714Y-51252380D01*
X76326714Y-50252380D01*
X76802904Y-50252380D01*
X77231476Y-51252380D02*
X77231476Y-50252380D01*
X77469571Y-50252380D01*
X77612428Y-50300000D01*
X77707666Y-50395238D01*
X77755285Y-50490476D01*
X77802904Y-50680952D01*
X77802904Y-50823809D01*
X77755285Y-51014285D01*
X77707666Y-51109523D01*
X77612428Y-51204761D01*
X77469571Y-51252380D01*
X77231476Y-51252380D01*
X43688095Y-13422380D02*
X43688095Y-14231904D01*
X43735714Y-14327142D01*
X43783333Y-14374761D01*
X43878571Y-14422380D01*
X44069047Y-14422380D01*
X44164285Y-14374761D01*
X44211904Y-14327142D01*
X44259523Y-14231904D01*
X44259523Y-13422380D01*
X45259523Y-14422380D02*
X44688095Y-14422380D01*
X44973809Y-14422380D02*
X44973809Y-13422380D01*
X44878571Y-13565238D01*
X44783333Y-13660476D01*
X44688095Y-13708095D01*
X45934714Y-13898571D02*
X46268047Y-13898571D01*
X46410904Y-14422380D02*
X45934714Y-14422380D01*
X45934714Y-13422380D01*
X46410904Y-13422380D01*
X46791857Y-14374761D02*
X46934714Y-14422380D01*
X47172809Y-14422380D01*
X47268047Y-14374761D01*
X47315666Y-14327142D01*
X47363285Y-14231904D01*
X47363285Y-14136666D01*
X47315666Y-14041428D01*
X47268047Y-13993809D01*
X47172809Y-13946190D01*
X46982333Y-13898571D01*
X46887095Y-13850952D01*
X46839476Y-13803333D01*
X46791857Y-13708095D01*
X46791857Y-13612857D01*
X46839476Y-13517619D01*
X46887095Y-13470000D01*
X46982333Y-13422380D01*
X47220428Y-13422380D01*
X47363285Y-13470000D01*
X47791857Y-14422380D02*
X47791857Y-13422380D01*
X48172809Y-13422380D01*
X48268047Y-13470000D01*
X48315666Y-13517619D01*
X48363285Y-13612857D01*
X48363285Y-13755714D01*
X48315666Y-13850952D01*
X48268047Y-13898571D01*
X48172809Y-13946190D01*
X47791857Y-13946190D01*
X48791857Y-14041428D02*
X49553761Y-14041428D01*
X50553761Y-14422380D02*
X49982333Y-14422380D01*
X50268047Y-14422380D02*
X50268047Y-13422380D01*
X50172809Y-13565238D01*
X50077571Y-13660476D01*
X49982333Y-13708095D01*
X50934714Y-13517619D02*
X50982333Y-13470000D01*
X51077571Y-13422380D01*
X51315666Y-13422380D01*
X51410904Y-13470000D01*
X51458523Y-13517619D01*
X51506142Y-13612857D01*
X51506142Y-13708095D01*
X51458523Y-13850952D01*
X50887095Y-14422380D01*
X51506142Y-14422380D01*
X51934714Y-13898571D02*
X52268047Y-13898571D01*
X52410904Y-14422380D02*
X51934714Y-14422380D01*
X51934714Y-13422380D01*
X52410904Y-13422380D01*
X39866666Y-50664761D02*
X40009523Y-50712380D01*
X40247619Y-50712380D01*
X40342857Y-50664761D01*
X40390476Y-50617142D01*
X40438095Y-50521904D01*
X40438095Y-50426666D01*
X40390476Y-50331428D01*
X40342857Y-50283809D01*
X40247619Y-50236190D01*
X40057142Y-50188571D01*
X39961904Y-50140952D01*
X39914285Y-50093333D01*
X39866666Y-49998095D01*
X39866666Y-49902857D01*
X39914285Y-49807619D01*
X39961904Y-49760000D01*
X40057142Y-49712380D01*
X40295238Y-49712380D01*
X40438095Y-49760000D01*
X40771428Y-49712380D02*
X41009523Y-50712380D01*
X41200000Y-49998095D01*
X41390476Y-50712380D01*
X41628571Y-49712380D01*
X41961904Y-49807619D02*
X42009523Y-49760000D01*
X42104761Y-49712380D01*
X42342857Y-49712380D01*
X42438095Y-49760000D01*
X42485714Y-49807619D01*
X42533333Y-49902857D01*
X42533333Y-49998095D01*
X42485714Y-50140952D01*
X41914285Y-50712380D01*
X42533333Y-50712380D01*
X39461904Y-42012380D02*
X39128571Y-41536190D01*
X38890476Y-42012380D02*
X38890476Y-41012380D01*
X39271428Y-41012380D01*
X39366666Y-41060000D01*
X39414285Y-41107619D01*
X39461904Y-41202857D01*
X39461904Y-41345714D01*
X39414285Y-41440952D01*
X39366666Y-41488571D01*
X39271428Y-41536190D01*
X38890476Y-41536190D01*
X40271428Y-41964761D02*
X40176190Y-42012380D01*
X39985714Y-42012380D01*
X39890476Y-41964761D01*
X39842857Y-41869523D01*
X39842857Y-41488571D01*
X39890476Y-41393333D01*
X39985714Y-41345714D01*
X40176190Y-41345714D01*
X40271428Y-41393333D01*
X40319047Y-41488571D01*
X40319047Y-41583809D01*
X39842857Y-41679047D01*
X40700000Y-41964761D02*
X40795238Y-42012380D01*
X40985714Y-42012380D01*
X41080952Y-41964761D01*
X41128571Y-41869523D01*
X41128571Y-41821904D01*
X41080952Y-41726666D01*
X40985714Y-41679047D01*
X40842857Y-41679047D01*
X40747619Y-41631428D01*
X40700000Y-41536190D01*
X40700000Y-41488571D01*
X40747619Y-41393333D01*
X40842857Y-41345714D01*
X40985714Y-41345714D01*
X41080952Y-41393333D01*
X41938095Y-41964761D02*
X41842857Y-42012380D01*
X41652380Y-42012380D01*
X41557142Y-41964761D01*
X41509523Y-41869523D01*
X41509523Y-41488571D01*
X41557142Y-41393333D01*
X41652380Y-41345714D01*
X41842857Y-41345714D01*
X41938095Y-41393333D01*
X41985714Y-41488571D01*
X41985714Y-41583809D01*
X41509523Y-41679047D01*
X42271428Y-41345714D02*
X42652380Y-41345714D01*
X42414285Y-41012380D02*
X42414285Y-41869523D01*
X42461904Y-41964761D01*
X42557142Y-42012380D01*
X42652380Y-42012380D01*
X52566666Y-50664761D02*
X52709523Y-50712380D01*
X52947619Y-50712380D01*
X53042857Y-50664761D01*
X53090476Y-50617142D01*
X53138095Y-50521904D01*
X53138095Y-50426666D01*
X53090476Y-50331428D01*
X53042857Y-50283809D01*
X52947619Y-50236190D01*
X52757142Y-50188571D01*
X52661904Y-50140952D01*
X52614285Y-50093333D01*
X52566666Y-49998095D01*
X52566666Y-49902857D01*
X52614285Y-49807619D01*
X52661904Y-49760000D01*
X52757142Y-49712380D01*
X52995238Y-49712380D01*
X53138095Y-49760000D01*
X53471428Y-49712380D02*
X53709523Y-50712380D01*
X53900000Y-49998095D01*
X54090476Y-50712380D01*
X54328571Y-49712380D01*
X55233333Y-50712380D02*
X54661904Y-50712380D01*
X54947619Y-50712380D02*
X54947619Y-49712380D01*
X54852380Y-49855238D01*
X54757142Y-49950476D01*
X54661904Y-49998095D01*
X51971428Y-41488571D02*
X51638095Y-41488571D01*
X51638095Y-42012380D02*
X51638095Y-41012380D01*
X52114285Y-41012380D01*
X52638095Y-42012380D02*
X52542857Y-41964761D01*
X52495238Y-41869523D01*
X52495238Y-41012380D01*
X53447619Y-42012380D02*
X53447619Y-41488571D01*
X53400000Y-41393333D01*
X53304761Y-41345714D01*
X53114285Y-41345714D01*
X53019047Y-41393333D01*
X53447619Y-41964761D02*
X53352380Y-42012380D01*
X53114285Y-42012380D01*
X53019047Y-41964761D01*
X52971428Y-41869523D01*
X52971428Y-41774285D01*
X53019047Y-41679047D01*
X53114285Y-41631428D01*
X53352380Y-41631428D01*
X53447619Y-41583809D01*
X53876190Y-41964761D02*
X53971428Y-42012380D01*
X54161904Y-42012380D01*
X54257142Y-41964761D01*
X54304761Y-41869523D01*
X54304761Y-41821904D01*
X54257142Y-41726666D01*
X54161904Y-41679047D01*
X54019047Y-41679047D01*
X53923809Y-41631428D01*
X53876190Y-41536190D01*
X53876190Y-41488571D01*
X53923809Y-41393333D01*
X54019047Y-41345714D01*
X54161904Y-41345714D01*
X54257142Y-41393333D01*
X54733333Y-42012380D02*
X54733333Y-41012380D01*
X55161904Y-42012380D02*
X55161904Y-41488571D01*
X55114285Y-41393333D01*
X55019047Y-41345714D01*
X54876190Y-41345714D01*
X54780952Y-41393333D01*
X54733333Y-41440952D01*
X65238333Y-46341380D02*
X64905000Y-45865190D01*
X64666904Y-46341380D02*
X64666904Y-45341380D01*
X65047857Y-45341380D01*
X65143095Y-45389000D01*
X65190714Y-45436619D01*
X65238333Y-45531857D01*
X65238333Y-45674714D01*
X65190714Y-45769952D01*
X65143095Y-45817571D01*
X65047857Y-45865190D01*
X64666904Y-45865190D01*
X65714523Y-46341380D02*
X65905000Y-46341380D01*
X66000238Y-46293761D01*
X66047857Y-46246142D01*
X66143095Y-46103285D01*
X66190714Y-45912809D01*
X66190714Y-45531857D01*
X66143095Y-45436619D01*
X66095476Y-45389000D01*
X66000238Y-45341380D01*
X65809761Y-45341380D01*
X65714523Y-45389000D01*
X65666904Y-45436619D01*
X65619285Y-45531857D01*
X65619285Y-45769952D01*
X65666904Y-45865190D01*
X65714523Y-45912809D01*
X65809761Y-45960428D01*
X66000238Y-45960428D01*
X66095476Y-45912809D01*
X66143095Y-45865190D01*
X66190714Y-45769952D01*
X65238333Y-37621380D02*
X64905000Y-37145190D01*
X64666904Y-37621380D02*
X64666904Y-36621380D01*
X65047857Y-36621380D01*
X65143095Y-36669000D01*
X65190714Y-36716619D01*
X65238333Y-36811857D01*
X65238333Y-36954714D01*
X65190714Y-37049952D01*
X65143095Y-37097571D01*
X65047857Y-37145190D01*
X64666904Y-37145190D01*
X65809761Y-37049952D02*
X65714523Y-37002333D01*
X65666904Y-36954714D01*
X65619285Y-36859476D01*
X65619285Y-36811857D01*
X65666904Y-36716619D01*
X65714523Y-36669000D01*
X65809761Y-36621380D01*
X66000238Y-36621380D01*
X66095476Y-36669000D01*
X66143095Y-36716619D01*
X66190714Y-36811857D01*
X66190714Y-36859476D01*
X66143095Y-36954714D01*
X66095476Y-37002333D01*
X66000238Y-37049952D01*
X65809761Y-37049952D01*
X65714523Y-37097571D01*
X65666904Y-37145190D01*
X65619285Y-37240428D01*
X65619285Y-37430904D01*
X65666904Y-37526142D01*
X65714523Y-37573761D01*
X65809761Y-37621380D01*
X66000238Y-37621380D01*
X66095476Y-37573761D01*
X66143095Y-37526142D01*
X66190714Y-37430904D01*
X66190714Y-37240428D01*
X66143095Y-37145190D01*
X66095476Y-37097571D01*
X66000238Y-37049952D01*
X65238333Y-36181380D02*
X64905000Y-35705190D01*
X64666904Y-36181380D02*
X64666904Y-35181380D01*
X65047857Y-35181380D01*
X65143095Y-35229000D01*
X65190714Y-35276619D01*
X65238333Y-35371857D01*
X65238333Y-35514714D01*
X65190714Y-35609952D01*
X65143095Y-35657571D01*
X65047857Y-35705190D01*
X64666904Y-35705190D01*
X65571666Y-35181380D02*
X66238333Y-35181380D01*
X65809761Y-36181380D01*
X65238333Y-27461380D02*
X64905000Y-26985190D01*
X64666904Y-27461380D02*
X64666904Y-26461380D01*
X65047857Y-26461380D01*
X65143095Y-26509000D01*
X65190714Y-26556619D01*
X65238333Y-26651857D01*
X65238333Y-26794714D01*
X65190714Y-26889952D01*
X65143095Y-26937571D01*
X65047857Y-26985190D01*
X64666904Y-26985190D01*
X66095476Y-26461380D02*
X65905000Y-26461380D01*
X65809761Y-26509000D01*
X65762142Y-26556619D01*
X65666904Y-26699476D01*
X65619285Y-26889952D01*
X65619285Y-27270904D01*
X65666904Y-27366142D01*
X65714523Y-27413761D01*
X65809761Y-27461380D01*
X66000238Y-27461380D01*
X66095476Y-27413761D01*
X66143095Y-27366142D01*
X66190714Y-27270904D01*
X66190714Y-27032809D01*
X66143095Y-26937571D01*
X66095476Y-26889952D01*
X66000238Y-26842333D01*
X65809761Y-26842333D01*
X65714523Y-26889952D01*
X65666904Y-26937571D01*
X65619285Y-27032809D01*
X59523333Y-38637380D02*
X59190000Y-38161190D01*
X58951904Y-38637380D02*
X58951904Y-37637380D01*
X59332857Y-37637380D01*
X59428095Y-37685000D01*
X59475714Y-37732619D01*
X59523333Y-37827857D01*
X59523333Y-37970714D01*
X59475714Y-38065952D01*
X59428095Y-38113571D01*
X59332857Y-38161190D01*
X58951904Y-38161190D01*
X60428095Y-37637380D02*
X59951904Y-37637380D01*
X59904285Y-38113571D01*
X59951904Y-38065952D01*
X60047142Y-38018333D01*
X60285238Y-38018333D01*
X60380476Y-38065952D01*
X60428095Y-38113571D01*
X60475714Y-38208809D01*
X60475714Y-38446904D01*
X60428095Y-38542142D01*
X60380476Y-38589761D01*
X60285238Y-38637380D01*
X60047142Y-38637380D01*
X59951904Y-38589761D01*
X59904285Y-38542142D01*
X59523333Y-33557380D02*
X59190000Y-33081190D01*
X58951904Y-33557380D02*
X58951904Y-32557380D01*
X59332857Y-32557380D01*
X59428095Y-32605000D01*
X59475714Y-32652619D01*
X59523333Y-32747857D01*
X59523333Y-32890714D01*
X59475714Y-32985952D01*
X59428095Y-33033571D01*
X59332857Y-33081190D01*
X58951904Y-33081190D01*
X60380476Y-32890714D02*
X60380476Y-33557380D01*
X60142380Y-32509761D02*
X59904285Y-33224047D01*
X60523333Y-33224047D01*
X59305833Y-28477380D02*
X58972500Y-28001190D01*
X58734404Y-28477380D02*
X58734404Y-27477380D01*
X59115357Y-27477380D01*
X59210595Y-27525000D01*
X59258214Y-27572619D01*
X59305833Y-27667857D01*
X59305833Y-27810714D01*
X59258214Y-27905952D01*
X59210595Y-27953571D01*
X59115357Y-28001190D01*
X58734404Y-28001190D01*
X59639166Y-27477380D02*
X60258214Y-27477380D01*
X59924880Y-27858333D01*
X60067738Y-27858333D01*
X60162976Y-27905952D01*
X60210595Y-27953571D01*
X60258214Y-28048809D01*
X60258214Y-28286904D01*
X60210595Y-28382142D01*
X60162976Y-28429761D01*
X60067738Y-28477380D01*
X59782023Y-28477380D01*
X59686785Y-28429761D01*
X59639166Y-28382142D01*
X59305833Y-23397380D02*
X58972500Y-22921190D01*
X58734404Y-23397380D02*
X58734404Y-22397380D01*
X59115357Y-22397380D01*
X59210595Y-22445000D01*
X59258214Y-22492619D01*
X59305833Y-22587857D01*
X59305833Y-22730714D01*
X59258214Y-22825952D01*
X59210595Y-22873571D01*
X59115357Y-22921190D01*
X58734404Y-22921190D01*
X59686785Y-22492619D02*
X59734404Y-22445000D01*
X59829642Y-22397380D01*
X60067738Y-22397380D01*
X60162976Y-22445000D01*
X60210595Y-22492619D01*
X60258214Y-22587857D01*
X60258214Y-22683095D01*
X60210595Y-22825952D01*
X59639166Y-23397380D01*
X60258214Y-23397380D01*
X59269333Y-18190380D02*
X58936000Y-17714190D01*
X58697904Y-18190380D02*
X58697904Y-17190380D01*
X59078857Y-17190380D01*
X59174095Y-17238000D01*
X59221714Y-17285619D01*
X59269333Y-17380857D01*
X59269333Y-17523714D01*
X59221714Y-17618952D01*
X59174095Y-17666571D01*
X59078857Y-17714190D01*
X58697904Y-17714190D01*
X60221714Y-18190380D02*
X59650285Y-18190380D01*
X59936000Y-18190380D02*
X59936000Y-17190380D01*
X59840761Y-17333238D01*
X59745523Y-17428476D01*
X59650285Y-17476095D01*
X64674761Y-53339619D02*
X64579523Y-53292000D01*
X64484285Y-53196761D01*
X64341428Y-53053904D01*
X64246190Y-53006285D01*
X64150952Y-53006285D01*
X64198571Y-53244380D02*
X64103333Y-53196761D01*
X64008095Y-53101523D01*
X63960476Y-52911047D01*
X63960476Y-52577714D01*
X64008095Y-52387238D01*
X64103333Y-52292000D01*
X64198571Y-52244380D01*
X64389047Y-52244380D01*
X64484285Y-52292000D01*
X64579523Y-52387238D01*
X64627142Y-52577714D01*
X64627142Y-52911047D01*
X64579523Y-53101523D01*
X64484285Y-53196761D01*
X64389047Y-53244380D01*
X64198571Y-53244380D01*
X65008095Y-52339619D02*
X65055714Y-52292000D01*
X65150952Y-52244380D01*
X65389047Y-52244380D01*
X65484285Y-52292000D01*
X65531904Y-52339619D01*
X65579523Y-52434857D01*
X65579523Y-52530095D01*
X65531904Y-52672952D01*
X64960476Y-53244380D01*
X65579523Y-53244380D01*
X62055714Y-47339619D02*
X62103333Y-47292000D01*
X62198571Y-47244380D01*
X62436666Y-47244380D01*
X62531904Y-47292000D01*
X62579523Y-47339619D01*
X62627142Y-47434857D01*
X62627142Y-47530095D01*
X62579523Y-47672952D01*
X62008095Y-48244380D01*
X62627142Y-48244380D01*
X63055714Y-48244380D02*
X63055714Y-47244380D01*
X63627142Y-48244380D01*
X63627142Y-47244380D01*
X64008095Y-47244380D02*
X64674761Y-47244380D01*
X64246190Y-48244380D01*
X65246190Y-47244380D02*
X65341428Y-47244380D01*
X65436666Y-47292000D01*
X65484285Y-47339619D01*
X65531904Y-47434857D01*
X65579523Y-47625333D01*
X65579523Y-47863428D01*
X65531904Y-48053904D01*
X65484285Y-48149142D01*
X65436666Y-48196761D01*
X65341428Y-48244380D01*
X65246190Y-48244380D01*
X65150952Y-48196761D01*
X65103333Y-48149142D01*
X65055714Y-48053904D01*
X65008095Y-47863428D01*
X65008095Y-47625333D01*
X65055714Y-47434857D01*
X65103333Y-47339619D01*
X65150952Y-47292000D01*
X65246190Y-47244380D01*
X66198571Y-47244380D02*
X66293809Y-47244380D01*
X66389047Y-47292000D01*
X66436666Y-47339619D01*
X66484285Y-47434857D01*
X66531904Y-47625333D01*
X66531904Y-47863428D01*
X66484285Y-48053904D01*
X66436666Y-48149142D01*
X66389047Y-48196761D01*
X66293809Y-48244380D01*
X66198571Y-48244380D01*
X66103333Y-48196761D01*
X66055714Y-48149142D01*
X66008095Y-48053904D01*
X65960476Y-47863428D01*
X65960476Y-47625333D01*
X66008095Y-47434857D01*
X66055714Y-47339619D01*
X66103333Y-47292000D01*
X66198571Y-47244380D01*
X67150952Y-47244380D02*
X67246190Y-47244380D01*
X67341428Y-47292000D01*
X67389047Y-47339619D01*
X67436666Y-47434857D01*
X67484285Y-47625333D01*
X67484285Y-47863428D01*
X67436666Y-48053904D01*
X67389047Y-48149142D01*
X67341428Y-48196761D01*
X67246190Y-48244380D01*
X67150952Y-48244380D01*
X67055714Y-48196761D01*
X67008095Y-48149142D01*
X66960476Y-48053904D01*
X66912857Y-47863428D01*
X66912857Y-47625333D01*
X66960476Y-47434857D01*
X67008095Y-47339619D01*
X67055714Y-47292000D01*
X67150952Y-47244380D01*
X72548761Y-40465619D02*
X72453523Y-40418000D01*
X72358285Y-40322761D01*
X72215428Y-40179904D01*
X72120190Y-40132285D01*
X72024952Y-40132285D01*
X72072571Y-40370380D02*
X71977333Y-40322761D01*
X71882095Y-40227523D01*
X71834476Y-40037047D01*
X71834476Y-39703714D01*
X71882095Y-39513238D01*
X71977333Y-39418000D01*
X72072571Y-39370380D01*
X72263047Y-39370380D01*
X72358285Y-39418000D01*
X72453523Y-39513238D01*
X72501142Y-39703714D01*
X72501142Y-40037047D01*
X72453523Y-40227523D01*
X72358285Y-40322761D01*
X72263047Y-40370380D01*
X72072571Y-40370380D01*
X73453523Y-40370380D02*
X72882095Y-40370380D01*
X73167809Y-40370380D02*
X73167809Y-39370380D01*
X73072571Y-39513238D01*
X72977333Y-39608476D01*
X72882095Y-39656095D01*
X69929714Y-44465619D02*
X69977333Y-44418000D01*
X70072571Y-44370380D01*
X70310666Y-44370380D01*
X70405904Y-44418000D01*
X70453523Y-44465619D01*
X70501142Y-44560857D01*
X70501142Y-44656095D01*
X70453523Y-44798952D01*
X69882095Y-45370380D01*
X70501142Y-45370380D01*
X70929714Y-45370380D02*
X70929714Y-44370380D01*
X71501142Y-45370380D01*
X71501142Y-44370380D01*
X71882095Y-44370380D02*
X72548761Y-44370380D01*
X72120190Y-45370380D01*
X73120190Y-44370380D02*
X73215428Y-44370380D01*
X73310666Y-44418000D01*
X73358285Y-44465619D01*
X73405904Y-44560857D01*
X73453523Y-44751333D01*
X73453523Y-44989428D01*
X73405904Y-45179904D01*
X73358285Y-45275142D01*
X73310666Y-45322761D01*
X73215428Y-45370380D01*
X73120190Y-45370380D01*
X73024952Y-45322761D01*
X72977333Y-45275142D01*
X72929714Y-45179904D01*
X72882095Y-44989428D01*
X72882095Y-44751333D01*
X72929714Y-44560857D01*
X72977333Y-44465619D01*
X73024952Y-44418000D01*
X73120190Y-44370380D01*
X74072571Y-44370380D02*
X74167809Y-44370380D01*
X74263047Y-44418000D01*
X74310666Y-44465619D01*
X74358285Y-44560857D01*
X74405904Y-44751333D01*
X74405904Y-44989428D01*
X74358285Y-45179904D01*
X74310666Y-45275142D01*
X74263047Y-45322761D01*
X74167809Y-45370380D01*
X74072571Y-45370380D01*
X73977333Y-45322761D01*
X73929714Y-45275142D01*
X73882095Y-45179904D01*
X73834476Y-44989428D01*
X73834476Y-44751333D01*
X73882095Y-44560857D01*
X73929714Y-44465619D01*
X73977333Y-44418000D01*
X74072571Y-44370380D01*
X75024952Y-44370380D02*
X75120190Y-44370380D01*
X75215428Y-44418000D01*
X75263047Y-44465619D01*
X75310666Y-44560857D01*
X75358285Y-44751333D01*
X75358285Y-44989428D01*
X75310666Y-45179904D01*
X75263047Y-45275142D01*
X75215428Y-45322761D01*
X75120190Y-45370380D01*
X75024952Y-45370380D01*
X74929714Y-45322761D01*
X74882095Y-45275142D01*
X74834476Y-45179904D01*
X74786857Y-44989428D01*
X74786857Y-44751333D01*
X74834476Y-44560857D01*
X74882095Y-44465619D01*
X74929714Y-44418000D01*
X75024952Y-44370380D01*
X24735714Y-25722380D02*
X24735714Y-24722380D01*
X25116666Y-24722380D01*
X25211904Y-24770000D01*
X25259523Y-24817619D01*
X25307142Y-24912857D01*
X25307142Y-25055714D01*
X25259523Y-25150952D01*
X25211904Y-25198571D01*
X25116666Y-25246190D01*
X24735714Y-25246190D01*
X25688095Y-25674761D02*
X25830952Y-25722380D01*
X26069047Y-25722380D01*
X26164285Y-25674761D01*
X26211904Y-25627142D01*
X26259523Y-25531904D01*
X26259523Y-25436666D01*
X26211904Y-25341428D01*
X26164285Y-25293809D01*
X26069047Y-25246190D01*
X25878571Y-25198571D01*
X25783333Y-25150952D01*
X25735714Y-25103333D01*
X25688095Y-25008095D01*
X25688095Y-24912857D01*
X25735714Y-24817619D01*
X25783333Y-24770000D01*
X25878571Y-24722380D01*
X26116666Y-24722380D01*
X26259523Y-24770000D01*
X27211904Y-25722380D02*
X26640476Y-25722380D01*
X26926190Y-25722380D02*
X26926190Y-24722380D01*
X26830952Y-24865238D01*
X26735714Y-24960476D01*
X26640476Y-25008095D01*
X19026666Y-37790380D02*
X19026666Y-36790380D01*
X19026666Y-37266571D02*
X19598095Y-37266571D01*
X19598095Y-37790380D02*
X19598095Y-36790380D01*
X20550476Y-37790380D02*
X20074285Y-37790380D01*
X20074285Y-36790380D01*
X20883809Y-37790380D02*
X20883809Y-36790380D01*
X21455238Y-37790380D02*
X21026666Y-37218952D01*
X21455238Y-36790380D02*
X20883809Y-37361809D01*
X21883809Y-37409428D02*
X22645714Y-37409428D01*
X23121904Y-37790380D02*
X23121904Y-36790380D01*
X23502857Y-36790380D01*
X23598095Y-36838000D01*
X23645714Y-36885619D01*
X23693333Y-36980857D01*
X23693333Y-37123714D01*
X23645714Y-37218952D01*
X23598095Y-37266571D01*
X23502857Y-37314190D01*
X23121904Y-37314190D01*
X24121904Y-37790380D02*
X24121904Y-36790380D01*
X24455238Y-37504666D01*
X24788571Y-36790380D01*
X24788571Y-37790380D01*
X25455238Y-36790380D02*
X25550476Y-36790380D01*
X25645714Y-36838000D01*
X25693333Y-36885619D01*
X25740952Y-36980857D01*
X25788571Y-37171333D01*
X25788571Y-37409428D01*
X25740952Y-37599904D01*
X25693333Y-37695142D01*
X25645714Y-37742761D01*
X25550476Y-37790380D01*
X25455238Y-37790380D01*
X25360000Y-37742761D01*
X25312380Y-37695142D01*
X25264761Y-37599904D01*
X25217142Y-37409428D01*
X25217142Y-37171333D01*
X25264761Y-36980857D01*
X25312380Y-36885619D01*
X25360000Y-36838000D01*
X25455238Y-36790380D01*
X26121904Y-36790380D02*
X26740952Y-36790380D01*
X26407619Y-37171333D01*
X26550476Y-37171333D01*
X26645714Y-37218952D01*
X26693333Y-37266571D01*
X26740952Y-37361809D01*
X26740952Y-37599904D01*
X26693333Y-37695142D01*
X26645714Y-37742761D01*
X26550476Y-37790380D01*
X26264761Y-37790380D01*
X26169523Y-37742761D01*
X26121904Y-37695142D01*
X54272380Y-60023333D02*
X54986666Y-60023333D01*
X55129523Y-60070952D01*
X55224761Y-60166190D01*
X55272380Y-60309047D01*
X55272380Y-60404285D01*
X54272380Y-59118571D02*
X54272380Y-59309047D01*
X54320000Y-59404285D01*
X54367619Y-59451904D01*
X54510476Y-59547142D01*
X54700952Y-59594761D01*
X55081904Y-59594761D01*
X55177142Y-59547142D01*
X55224761Y-59499523D01*
X55272380Y-59404285D01*
X55272380Y-59213809D01*
X55224761Y-59118571D01*
X55177142Y-59070952D01*
X55081904Y-59023333D01*
X54843809Y-59023333D01*
X54748571Y-59070952D01*
X54700952Y-59118571D01*
X54653333Y-59213809D01*
X54653333Y-59404285D01*
X54700952Y-59499523D01*
X54748571Y-59547142D01*
X54843809Y-59594761D01*
X50042380Y-60023333D02*
X50756666Y-60023333D01*
X50899523Y-60070952D01*
X50994761Y-60166190D01*
X51042380Y-60309047D01*
X51042380Y-60404285D01*
X50042380Y-59070952D02*
X50042380Y-59547142D01*
X50518571Y-59594761D01*
X50470952Y-59547142D01*
X50423333Y-59451904D01*
X50423333Y-59213809D01*
X50470952Y-59118571D01*
X50518571Y-59070952D01*
X50613809Y-59023333D01*
X50851904Y-59023333D01*
X50947142Y-59070952D01*
X50994761Y-59118571D01*
X51042380Y-59213809D01*
X51042380Y-59451904D01*
X50994761Y-59547142D01*
X50947142Y-59594761D01*
X74596666Y-36453380D02*
X74596666Y-37167666D01*
X74549047Y-37310523D01*
X74453809Y-37405761D01*
X74310952Y-37453380D01*
X74215714Y-37453380D01*
X75501428Y-36786714D02*
X75501428Y-37453380D01*
X75263333Y-36405761D02*
X75025238Y-37120047D01*
X75644285Y-37120047D01*
X72049047Y-24173380D02*
X72049047Y-24982904D01*
X72096666Y-25078142D01*
X72144285Y-25125761D01*
X72239523Y-25173380D01*
X72430000Y-25173380D01*
X72525238Y-25125761D01*
X72572857Y-25078142D01*
X72620476Y-24982904D01*
X72620476Y-24173380D01*
X73049047Y-24887666D02*
X73525238Y-24887666D01*
X72953809Y-25173380D02*
X73287142Y-24173380D01*
X73620476Y-25173380D01*
X74525238Y-25173380D02*
X74191904Y-24697190D01*
X73953809Y-25173380D02*
X73953809Y-24173380D01*
X74334761Y-24173380D01*
X74430000Y-24221000D01*
X74477619Y-24268619D01*
X74525238Y-24363857D01*
X74525238Y-24506714D01*
X74477619Y-24601952D01*
X74430000Y-24649571D01*
X74334761Y-24697190D01*
X73953809Y-24697190D01*
X74810952Y-24173380D02*
X75382380Y-24173380D01*
X75096666Y-25173380D02*
X75096666Y-24173380D01*
X76953809Y-24173380D02*
X76477619Y-24173380D01*
X76430000Y-24649571D01*
X76477619Y-24601952D01*
X76572857Y-24554333D01*
X76810952Y-24554333D01*
X76906190Y-24601952D01*
X76953809Y-24649571D01*
X77001428Y-24744809D01*
X77001428Y-24982904D01*
X76953809Y-25078142D01*
X76906190Y-25125761D01*
X76810952Y-25173380D01*
X76572857Y-25173380D01*
X76477619Y-25125761D01*
X76430000Y-25078142D01*
X77287142Y-24173380D02*
X77620476Y-25173380D01*
X77953809Y-24173380D01*
X65071666Y-24642380D02*
X65071666Y-25356666D01*
X65024047Y-25499523D01*
X64928809Y-25594761D01*
X64785952Y-25642380D01*
X64690714Y-25642380D01*
X65452619Y-24642380D02*
X66071666Y-24642380D01*
X65738333Y-25023333D01*
X65881190Y-25023333D01*
X65976428Y-25070952D01*
X66024047Y-25118571D01*
X66071666Y-25213809D01*
X66071666Y-25451904D01*
X66024047Y-25547142D01*
X65976428Y-25594761D01*
X65881190Y-25642380D01*
X65595476Y-25642380D01*
X65500238Y-25594761D01*
X65452619Y-25547142D01*
X63976428Y-12838571D02*
X63643095Y-12838571D01*
X63643095Y-13362380D02*
X63643095Y-12362380D01*
X64119285Y-12362380D01*
X64643095Y-13362380D02*
X64547857Y-13314761D01*
X64500238Y-13219523D01*
X64500238Y-12362380D01*
X65452619Y-13362380D02*
X65452619Y-12838571D01*
X65405000Y-12743333D01*
X65309761Y-12695714D01*
X65119285Y-12695714D01*
X65024047Y-12743333D01*
X65452619Y-13314761D02*
X65357380Y-13362380D01*
X65119285Y-13362380D01*
X65024047Y-13314761D01*
X64976428Y-13219523D01*
X64976428Y-13124285D01*
X65024047Y-13029047D01*
X65119285Y-12981428D01*
X65357380Y-12981428D01*
X65452619Y-12933809D01*
X65881190Y-13314761D02*
X65976428Y-13362380D01*
X66166904Y-13362380D01*
X66262142Y-13314761D01*
X66309761Y-13219523D01*
X66309761Y-13171904D01*
X66262142Y-13076666D01*
X66166904Y-13029047D01*
X66024047Y-13029047D01*
X65928809Y-12981428D01*
X65881190Y-12886190D01*
X65881190Y-12838571D01*
X65928809Y-12743333D01*
X66024047Y-12695714D01*
X66166904Y-12695714D01*
X66262142Y-12743333D01*
X66738333Y-13362380D02*
X66738333Y-12362380D01*
X67166904Y-13362380D02*
X67166904Y-12838571D01*
X67119285Y-12743333D01*
X67024047Y-12695714D01*
X66881190Y-12695714D01*
X66785952Y-12743333D01*
X66738333Y-12790952D01*
X32686666Y-12362380D02*
X32686666Y-13076666D01*
X32639047Y-13219523D01*
X32543809Y-13314761D01*
X32400952Y-13362380D01*
X32305714Y-13362380D01*
X33115238Y-12457619D02*
X33162857Y-12410000D01*
X33258095Y-12362380D01*
X33496190Y-12362380D01*
X33591428Y-12410000D01*
X33639047Y-12457619D01*
X33686666Y-12552857D01*
X33686666Y-12648095D01*
X33639047Y-12790952D01*
X33067619Y-13362380D01*
X33686666Y-13362380D01*
X28622809Y-14692380D02*
X29241857Y-14692380D01*
X28908523Y-15073333D01*
X29051380Y-15073333D01*
X29146619Y-15120952D01*
X29194238Y-15168571D01*
X29241857Y-15263809D01*
X29241857Y-15501904D01*
X29194238Y-15597142D01*
X29146619Y-15644761D01*
X29051380Y-15692380D01*
X28765666Y-15692380D01*
X28670428Y-15644761D01*
X28622809Y-15597142D01*
X29670428Y-15597142D02*
X29718047Y-15644761D01*
X29670428Y-15692380D01*
X29622809Y-15644761D01*
X29670428Y-15597142D01*
X29670428Y-15692380D01*
X30051380Y-14692380D02*
X30670428Y-14692380D01*
X30337095Y-15073333D01*
X30479952Y-15073333D01*
X30575190Y-15120952D01*
X30622809Y-15168571D01*
X30670428Y-15263809D01*
X30670428Y-15501904D01*
X30622809Y-15597142D01*
X30575190Y-15644761D01*
X30479952Y-15692380D01*
X30194238Y-15692380D01*
X30099000Y-15644761D01*
X30051380Y-15597142D01*
X30956142Y-14692380D02*
X31289476Y-15692380D01*
X31622809Y-14692380D01*
X22486666Y-12242380D02*
X22486666Y-12956666D01*
X22439047Y-13099523D01*
X22343809Y-13194761D01*
X22200952Y-13242380D01*
X22105714Y-13242380D01*
X23486666Y-13242380D02*
X22915238Y-13242380D01*
X23200952Y-13242380D02*
X23200952Y-12242380D01*
X23105714Y-12385238D01*
X23010476Y-12480476D01*
X22915238Y-12528095D01*
X59232833Y-16655142D02*
X59185214Y-16702761D01*
X59042357Y-16750380D01*
X58947119Y-16750380D01*
X58804261Y-16702761D01*
X58709023Y-16607523D01*
X58661404Y-16512285D01*
X58613785Y-16321809D01*
X58613785Y-16178952D01*
X58661404Y-15988476D01*
X58709023Y-15893238D01*
X58804261Y-15798000D01*
X58947119Y-15750380D01*
X59042357Y-15750380D01*
X59185214Y-15798000D01*
X59232833Y-15845619D01*
X60185214Y-16750380D02*
X59613785Y-16750380D01*
X59899500Y-16750380D02*
X59899500Y-15750380D01*
X59804261Y-15893238D01*
X59709023Y-15988476D01*
X59613785Y-16036095D01*
M02*
